Comic Neue Angular Light.ufo
<glyph name="numbersign" format="1">
  <advance width="741"/>
  <unicode hex="0023"/>
  <outline>
    <contour>
      <point x="681" y="449" type="line"/>
      <point x="690" y="483" type="line"/>
      <point x="545" y="483" type="line"/>
      <point x="608" y="699" type="line"/>
      <point x="570" y="696" type="line"/>
      <point x="510" y="483" type="line"/>
      <point x="327" y="483" type="line"/>
      <point x="389" y="700" type="line"/>
      <point x="353" y="697" type="line"/>
      <point x="291" y="483" type="line"/>
      <point x="116" y="483" type="line"/>
      <point x="106" y="449" type="line"/>
      <point x="281" y="449" type="line"/>
      <point x="226" y="256" type="line"/>
      <point x="75" y="256" type="line"/>
      <point x="65" y="221" type="line"/>
      <point x="215" y="221" type="line"/>
      <point x="152" y="1" type="line"/>
      <point x="189" y="4" type="line"/>
      <point x="251" y="221" type="line"/>
      <point x="434" y="221" type="line"/>
      <point x="370" y="1" type="line"/>
      <point x="408" y="4" type="line"/>
      <point x="469" y="221" type="line"/>
      <point x="634" y="221" type="line"/>
      <point x="644" y="256" type="line"/>
      <point x="480" y="256" type="line"/>
      <point x="535" y="449" type="line"/>
    </contour>
    <contour>
      <point x="444" y="256" type="line"/>
      <point x="261" y="256" type="line"/>
      <point x="316" y="449" type="line"/>
      <point x="500" y="449" type="line"/>
    </contour>
  </outline>
</glyph>
<glyph name="percent" format="1">
  <advance width="718"/>
  <unicode hex="0025"/>
  <outline>
    <contour>
      <point x="265" y="440"/>
      <point x="324" y="499"/>
      <point x="324" y="571" type="curve" smooth="yes"/>
      <point x="324" y="643"/>
      <point x="265" y="702"/>
      <point x="193" y="702" type="curve" smooth="yes"/>
      <point x="121" y="702"/>
      <point x="61" y="643"/>
      <point x="61" y="571" type="curve" smooth="yes"/>
      <point x="61" y="499"/>
      <point x="121" y="440"/>
      <point x="193" y="440" type="curve" smooth="yes"/>
    </contour>
    <contour>
      <point x="245" y="667"/>
      <point x="289" y="623"/>
      <point x="289" y="571" type="curve" smooth="yes"/>
      <point x="289" y="519"/>
      <point x="245" y="475"/>
      <point x="193" y="475" type="curve" smooth="yes"/>
      <point x="141" y="475"/>
      <point x="97" y="519"/>
      <point x="97" y="571" type="curve" smooth="yes"/>
      <point x="97" y="623"/>
      <point x="141" y="667"/>
      <point x="193" y="667" type="curve" smooth="yes"/>
    </contour>
    <contour>
      <point x="604" y="-8"/>
      <point x="663" y="51"/>
      <point x="663" y="123" type="curve" smooth="yes"/>
      <point x="663" y="195"/>
      <point x="604" y="254"/>
      <point x="532" y="254" type="curve" smooth="yes"/>
      <point x="460" y="254"/>
      <point x="401" y="195"/>
      <point x="401" y="123" type="curve" smooth="yes"/>
      <point x="401" y="51"/>
      <point x="460" y="-8"/>
      <point x="532" y="-8" type="curve" smooth="yes"/>
    </contour>
    <contour>
      <point x="584" y="219"/>
      <point x="628" y="175"/>
      <point x="628" y="123" type="curve" smooth="yes"/>
      <point x="628" y="71"/>
      <point x="584" y="27"/>
      <point x="532" y="27" type="curve" smooth="yes"/>
      <point x="480" y="27"/>
      <point x="436" y="71"/>
      <point x="436" y="123" type="curve" smooth="yes"/>
      <point x="436" y="175"/>
      <point x="480" y="219"/>
      <point x="532" y="219" type="curve" smooth="yes"/>
    </contour>
    <contour>
      <point x="541" y="697" type="line"/>
      <point x="146" y="0" type="line"/>
      <point x="190" y="0" type="line"/>
      <point x="584" y="697" type="line"/>
    </contour>
  </outline>
</glyph>
<glyph name="quotesingle" format="1">
  <advance width="178"/>
  <unicode hex="0027"/>
  <outline>
    <contour>
      <point x="110" y="530" type="line"/>
      <point x="110" y="696" type="line"/>
      <point x="74" y="688" type="line"/>
      <point x="74" y="523" type="line"/>
    </contour>
  </outline>
</glyph>
<glyph name="parenright" format="1">
  <advance width="367"/>
  <unicode hex="0029"/>
  <outline>
    <contour>
      <point x="68" y="794" type="line"/>
      <point x="113" y="752"/>
      <point x="269" y="600"/>
      <point x="269" y="344" type="curve" smooth="yes"/>
      <point x="269" y="189"/>
      <point x="202" y="29"/>
      <point x="91" y="-91" type="curve"/>
      <point x="113" y="-118" type="line"/>
      <point x="234" y="9"/>
      <point x="305" y="181"/>
      <point x="305" y="344" type="curve" smooth="yes"/>
      <point x="305" y="477"/>
      <point x="258" y="674"/>
      <point x="94" y="819" type="curve"/>
    </contour>
  </outline>
</glyph>
<glyph name="asterisk" format="1">
  <advance width="407"/>
  <unicode hex="002A"/>
  <outline>
    <contour>
      <point x="187" y="583"/>
      <point x="154" y="602"/>
      <point x="139" y="607" type="curve" smooth="yes"/>
      <point x="74" y="629" type="line"/>
      <point x="62" y="596" type="line"/>
      <point x="128" y="575" type="line"/>
      <point x="143" y="569"/>
      <point x="175" y="566"/>
      <point x="193" y="563" type="curve"/>
      <point x="185" y="555"/>
      <point x="158" y="529"/>
      <point x="148" y="516" type="curve" smooth="yes"/>
      <point x="106" y="461" type="line"/>
      <point x="135" y="440" type="line"/>
      <point x="175" y="495" type="line" smooth="yes"/>
      <point x="185" y="508"/>
      <point x="198" y="538"/>
      <point x="206" y="555" type="curve"/>
      <point x="212" y="544"/>
      <point x="228" y="510"/>
      <point x="236" y="497" type="curve"/>
      <point x="276" y="440" type="line"/>
      <point x="305" y="461" type="line"/>
      <point x="265" y="517" type="line" smooth="yes"/>
      <point x="256" y="530"/>
      <point x="232" y="551"/>
      <point x="218" y="564" type="curve"/>
      <point x="230" y="567"/>
      <point x="268" y="571"/>
      <point x="282" y="576" type="curve"/>
      <point x="348" y="597" type="line"/>
      <point x="338" y="630" type="line"/>
      <point x="273" y="609" type="line" smooth="yes"/>
      <point x="257" y="604"/>
      <point x="230" y="588"/>
      <point x="213" y="579" type="curve"/>
      <point x="214" y="591"/>
      <point x="223" y="628"/>
      <point x="223" y="644" type="curve" smooth="yes"/>
      <point x="223" y="713" type="line"/>
      <point x="188" y="713" type="line"/>
      <point x="188" y="644" type="line" smooth="yes"/>
      <point x="188" y="628"/>
      <point x="195" y="596"/>
      <point x="198" y="578" type="curve"/>
    </contour>
  </outline>
</glyph>
<glyph name="comma" format="1">
  <advance width="307"/>
  <unicode hex="002C"/>
  <outline>
    <contour>
      <point x="162" y="60" type="line"/>
      <point x="119" y="16" type="line"/>
      <point x="156" y="-6" type="line"/>
      <point x="100" y="-106" type="line"/>
      <point x="132" y="-125" type="line"/>
      <point x="220" y="29" type="line"/>
    </contour>
  </outline>
</glyph>
<glyph name="period" format="1">
  <advance width="212"/>
  <unicode hex="002E"/>
  <outline>
    <contour>
      <point x="139" y="74" type="line"/>
      <point x="83" y="66" type="line"/>
      <point x="77" y="1" type="line"/>
      <point x="131" y="9" type="line"/>
    </contour>
  </outline>
</glyph>
<glyph name="slash" format="1">
  <advance width="482"/>
  <unicode hex="002F"/>
  <outline>
    <contour>
      <point x="420" y="700" type="line"/>
      <point x="36" y="0" type="line"/>
      <point x="75" y="0" type="line"/>
      <point x="460" y="700" type="line"/>
    </contour>
  </outline>
</glyph>
<glyph name="one" format="1">
  <advance width="404"/>
  <unicode hex="0031"/>
  <outline>
    <contour>
      <point x="241" y="35" type="line"/>
      <point x="251" y="676" type="line"/>
      <point x="70" y="511" type="line"/>
      <point x="93" y="484" type="line"/>
      <point x="215" y="595" type="line"/>
      <point x="205" y="35" type="line"/>
      <point x="89" y="35" type="line"/>
      <point x="81" y="0" type="line"/>
      <point x="333" y="0" type="line"/>
      <point x="341" y="35" type="line"/>
    </contour>
  </outline>
</glyph>
<glyph name="two" format="1">
  <advance width="514"/>
  <unicode hex="0032"/>
  <outline>
    <contour>
      <point x="102" y="35" type="line"/>
      <point x="110" y="168"/>
      <point x="160" y="214"/>
      <point x="261" y="281" type="curve" smooth="yes"/>
      <point x="355" y="344"/>
      <point x="451" y="422"/>
      <point x="451" y="521" type="curve" smooth="yes"/>
      <point x="451" y="585"/>
      <point x="408" y="681"/>
      <point x="266" y="681" type="curve" smooth="yes"/>
      <point x="163" y="681"/>
      <point x="97" y="616"/>
      <point x="69" y="580" type="curve"/>
      <point x="93" y="554" type="line"/>
      <point x="115" y="583"/>
      <point x="175" y="646"/>
      <point x="266" y="646" type="curve" smooth="yes"/>
      <point x="326" y="646"/>
      <point x="416" y="612"/>
      <point x="416" y="521" type="curve" smooth="yes"/>
      <point x="416" y="454"/>
      <point x="364" y="393"/>
      <point x="243" y="311" type="curve" smooth="yes"/>
      <point x="129" y="234"/>
      <point x="68" y="175"/>
      <point x="68" y="18" type="curve" smooth="yes"/>
      <point x="68" y="0" type="line"/>
      <point x="452" y="0" type="line"/>
      <point x="459" y="35" type="line"/>
    </contour>
  </outline>
</glyph>
<glyph name="seven" format="1">
  <advance width="491"/>
  <unicode hex="0037"/>
  <outline>
    <contour>
      <point x="145" y="4" type="line"/>
      <point x="488" y="682" type="line"/>
      <point x="68" y="682" type="line"/>
      <point x="76" y="647" type="line"/>
      <point x="434" y="647" type="line"/>
      <point x="115" y="20" type="line"/>
    </contour>
  </outline>
</glyph>
<glyph name="eight" format="1">
  <advance width="537"/>
  <unicode hex="0038"/>
  <outline>
    <contour>
      <point x="390" y="-3"/>
      <point x="477" y="78"/>
      <point x="477" y="186" type="curve" smooth="yes"/>
      <point x="477" y="265"/>
      <point x="423" y="334"/>
      <point x="332" y="380" type="curve"/>
      <point x="397" y="412"/>
      <point x="456" y="457"/>
      <point x="459" y="537" type="curve"/>
      <point x="459" y="629"/>
      <point x="386" y="694"/>
      <point x="284" y="694" type="curve" smooth="yes"/>
      <point x="183" y="694"/>
      <point x="103" y="630"/>
      <point x="103" y="521" type="curve" smooth="yes"/>
      <point x="103" y="447"/>
      <point x="161" y="402"/>
      <point x="227" y="373" type="curve"/>
      <point x="153" y="336"/>
      <point x="72" y="280"/>
      <point x="69" y="176" type="curve" smooth="yes"/>
      <point x="69" y="73"/>
      <point x="154" y="-3"/>
      <point x="273" y="-3" type="curve" smooth="yes"/>
    </contour>
    <contour>
      <point x="353" y="334"/>
      <point x="441" y="277"/>
      <point x="441" y="183" type="curve" smooth="yes"/>
      <point x="441" y="80"/>
      <point x="352" y="33"/>
      <point x="273" y="33" type="curve" smooth="yes"/>
      <point x="179" y="33"/>
      <point x="105" y="90"/>
      <point x="105" y="170" type="curve" smooth="yes"/>
      <point x="105" y="281"/>
      <point x="194" y="326"/>
      <point x="273" y="358" type="curve"/>
    </contour>
    <contour>
      <point x="190" y="423"/>
      <point x="138" y="461"/>
      <point x="138" y="525" type="curve" smooth="yes"/>
      <point x="138" y="598"/>
      <point x="197" y="656"/>
      <point x="284" y="656" type="curve" smooth="yes"/>
      <point x="361" y="656"/>
      <point x="423" y="613"/>
      <point x="423" y="544" type="curve" smooth="yes"/>
      <point x="423" y="466"/>
      <point x="375" y="434"/>
      <point x="288" y="396" type="curve"/>
    </contour>
  </outline>
</glyph>
<glyph name="less" format="1">
  <advance width="558"/>
  <unicode hex="003C"/>
  <outline>
    <contour>
      <point x="452" y="2" type="line"/>
      <point x="471" y="31" type="line"/>
      <point x="147" y="250" type="line"/>
      <point x="490" y="471" type="line"/>
      <point x="469" y="500" type="line"/>
      <point x="83" y="251" type="line"/>
    </contour>
  </outline>
</glyph>
<glyph name="equal" format="1">
  <advance width="495"/>
  <unicode hex="003D"/>
  <outline>
    <contour>
      <point x="418" y="311" type="line"/>
      <point x="425" y="347" type="line"/>
      <point x="90" y="347" type="line"/>
      <point x="82" y="311" type="line"/>
    </contour>
    <contour>
      <point x="418" y="152" type="line"/>
      <point x="425" y="186" type="line"/>
      <point x="90" y="186" type="line"/>
      <point x="82" y="152" type="line"/>
    </contour>
  </outline>
</glyph>
<glyph name="greater" format="1">
  <advance width="558"/>
  <unicode hex="003E"/>
  <outline>
    <contour>
      <point x="103" y="2" type="line"/>
      <point x="489" y="251" type="line"/>
      <point x="119" y="500" type="line"/>
      <point x="102" y="472" type="line"/>
      <point x="424" y="252" type="line"/>
      <point x="82" y="31" type="line"/>
    </contour>
  </outline>
</glyph>
<glyph name="at" format="1">
  <advance width="818"/>
  <unicode hex="0040"/>
  <outline>
    <contour>
      <point x="290" y="-65"/>
      <point x="103" y="45"/>
      <point x="103" y="252" type="curve" smooth="yes"/>
      <point x="103" y="472"/>
      <point x="270" y="586"/>
      <point x="435" y="586" type="curve" smooth="yes"/>
      <point x="634" y="586"/>
      <point x="737" y="435"/>
      <point x="737" y="286" type="curve" smooth="yes"/>
      <point x="737" y="201"/>
      <point x="700" y="133"/>
      <point x="618" y="133" type="curve" smooth="yes"/>
      <point x="555" y="133"/>
      <point x="508" y="174"/>
      <point x="508" y="226" type="curve" smooth="yes"/>
      <point x="508" y="240"/>
      <point x="508" y="250"/>
      <point x="512" y="265" type="curve"/>
      <point x="479" y="276" type="line"/>
      <point x="460" y="235"/>
      <point x="410" y="147"/>
      <point x="350" y="147" type="curve" smooth="yes"/>
      <point x="309" y="147"/>
      <point x="275" y="176"/>
      <point x="275" y="236" type="curve" smooth="yes"/>
      <point x="275" y="313"/>
      <point x="331" y="391"/>
      <point x="407" y="391" type="curve" smooth="yes"/>
      <point x="431" y="391"/>
      <point x="452" y="383"/>
      <point x="476" y="369" type="curve"/>
      <point x="498" y="397" type="line"/>
      <point x="469" y="418"/>
      <point x="438" y="425"/>
      <point x="407" y="425" type="curve" smooth="yes"/>
      <point x="311" y="425"/>
      <point x="240" y="334"/>
      <point x="240" y="236" type="curve" smooth="yes"/>
      <point x="240" y="157"/>
      <point x="285" y="112"/>
      <point x="350" y="112" type="curve" smooth="yes"/>
      <point x="397" y="112"/>
      <point x="442" y="153"/>
      <point x="475" y="198" type="curve"/>
      <point x="495" y="139"/>
      <point x="547" y="99"/>
      <point x="616" y="98" type="curve" smooth="yes"/>
      <point x="716" y="98"/>
      <point x="773" y="182"/>
      <point x="773" y="286" type="curve" smooth="yes"/>
      <point x="773" y="477"/>
      <point x="624" y="622"/>
      <point x="435" y="622" type="curve" smooth="yes"/>
      <point x="226" y="622"/>
      <point x="68" y="463"/>
      <point x="68" y="252" type="curve" smooth="yes"/>
      <point x="68" y="59"/>
      <point x="230" y="-99"/>
      <point x="426" y="-99" type="curve" smooth="yes"/>
      <point x="551" y="-99"/>
      <point x="638" y="-40"/>
      <point x="670" y="-15" type="curve"/>
      <point x="634" y="2" type="line"/>
      <point x="600" y="-23"/>
      <point x="527" y="-65"/>
      <point x="426" y="-65" type="curve" smooth="yes"/>
    </contour>
  </outline>
</glyph>
<glyph name="B" format="1">
  <advance width="592"/>
  <unicode hex="0042"/>
  <outline>
    <contour>
      <point x="464" y="388"/>
      <point x="487" y="452"/>
      <point x="487" y="509" type="curve" smooth="yes"/>
      <point x="487" y="616"/>
      <point x="408" y="681"/>
      <point x="275" y="681" type="curve" smooth="yes"/>
      <point x="68" y="681" type="line"/>
      <point x="68" y="0" type="line"/>
      <point x="126" y="0" type="line" smooth="yes"/>
      <point x="253" y="0"/>
      <point x="549" y="22"/>
      <point x="549" y="201" type="curve" smooth="yes"/>
      <point x="549" y="298"/>
      <point x="455" y="366"/>
      <point x="347" y="364" type="curve"/>
    </contour>
    <contour>
      <point x="103" y="342" type="line"/>
      <point x="303" y="342" type="line" smooth="yes"/>
      <point x="381" y="342"/>
      <point x="514" y="319"/>
      <point x="514" y="199" type="curve" smooth="yes"/>
      <point x="514" y="49"/>
      <point x="193" y="31"/>
      <point x="103" y="35" type="curve"/>
    </contour>
    <contour>
      <point x="103" y="646" type="line"/>
      <point x="275" y="646" type="line" smooth="yes"/>
      <point x="421" y="646"/>
      <point x="452" y="573"/>
      <point x="452" y="509" type="curve" smooth="yes"/>
      <point x="452" y="403"/>
      <point x="342" y="376"/>
      <point x="257" y="376" type="curve" smooth="yes"/>
      <point x="103" y="376" type="line"/>
    </contour>
  </outline>
</glyph>
<glyph name="I" format="1">
  <advance width="427"/>
  <unicode hex="0049"/>
  <outline>
    <contour>
      <point x="361" y="644" type="line"/>
      <point x="368" y="681" type="line"/>
      <point x="73" y="681" type="line"/>
      <point x="66" y="644" type="line"/>
      <point x="201" y="644" type="line"/>
      <point x="201" y="37" type="line"/>
      <point x="73" y="37" type="line"/>
      <point x="66" y="0" type="line"/>
      <point x="361" y="0" type="line"/>
      <point x="368" y="37" type="line"/>
      <point x="238" y="37" type="line"/>
      <point x="238" y="644" type="line"/>
    </contour>
  </outline>
</glyph>
<glyph name="K" format="1">
  <advance width="567"/>
  <unicode hex="004B"/>
  <outline>
    <contour>
      <point x="518" y="32" type="line"/>
      <point x="118" y="336" type="line"/>
      <point x="492" y="649" type="line"/>
      <point x="470" y="675" type="line"/>
      <point x="103" y="368" type="line"/>
      <point x="103" y="679" type="line"/>
      <point x="68" y="672" type="line"/>
      <point x="68" y="2" type="line"/>
      <point x="103" y="9" type="line"/>
      <point x="103" y="304" type="line"/>
      <point x="498" y="4" type="line"/>
    </contour>
  </outline>
</glyph>
<glyph name="Q" format="1">
  <advance width="711"/>
  <unicode hex="0051"/>
  <outline>
    <contour>
      <point x="538" y="83" type="line"/>
      <point x="614" y="158"/>
      <point x="661" y="259"/>
      <point x="661" y="367" type="curve" smooth="yes"/>
      <point x="661" y="537"/>
      <point x="541" y="679"/>
      <point x="379" y="679" type="curve" smooth="yes"/>
      <point x="203" y="679"/>
      <point x="52" y="515"/>
      <point x="52" y="315" type="curve" smooth="yes"/>
      <point x="52" y="143"/>
      <point x="172" y="-1"/>
      <point x="333" y="-1" type="curve" smooth="yes"/>
      <point x="393" y="-1"/>
      <point x="455" y="22"/>
      <point x="510" y="61" type="curve"/>
      <point x="652" y="-33" type="line"/>
      <point x="667" y="-1" type="line"/>
    </contour>
    <contour>
      <point x="399" y="177" type="line"/>
      <point x="366" y="158" type="line"/>
      <point x="482" y="84" type="line"/>
      <point x="434" y="53"/>
      <point x="381" y="33"/>
      <point x="333" y="33" type="curve" smooth="yes"/>
      <point x="196" y="33"/>
      <point x="94" y="157"/>
      <point x="94" y="313" type="curve" smooth="yes"/>
      <point x="94" y="495"/>
      <point x="228" y="644"/>
      <point x="377" y="644" type="curve" smooth="yes"/>
      <point x="521" y="644"/>
      <point x="620" y="504"/>
      <point x="620" y="360" type="curve" smooth="yes"/>
      <point x="620" y="263"/>
      <point x="577" y="170"/>
      <point x="509" y="107" type="curve"/>
    </contour>
  </outline>
</glyph>
<glyph name="T" format="1">
  <advance width="512"/>
  <unicode hex="0054"/>
  <outline>
    <contour>
      <point x="233" y="2" type="line"/>
      <point x="271" y="9" type="line"/>
      <point x="271" y="644" type="line"/>
      <point x="509" y="644" type="line"/>
      <point x="509" y="681" type="line"/>
      <point x="11" y="681" type="line"/>
      <point x="11" y="644" type="line"/>
      <point x="233" y="644" type="line"/>
    </contour>
  </outline>
</glyph>
<glyph name="U" format="1">
  <advance width="674"/>
  <unicode hex="0055"/>
  <outline>
    <contour>
      <point x="597" y="0"/>
      <point x="616" y="247"/>
      <point x="616" y="480" type="curve" smooth="yes"/>
      <point x="616" y="556"/>
      <point x="616" y="653"/>
      <point x="615" y="678" type="curve"/>
      <point x="577" y="670" type="line"/>
      <point x="578" y="624"/>
      <point x="579" y="513"/>
      <point x="579" y="434" type="curve" smooth="yes"/>
      <point x="579" y="253"/>
      <point x="562" y="30"/>
      <point x="342" y="30" type="curve" smooth="yes"/>
      <point x="130" y="30"/>
      <point x="105" y="233"/>
      <point x="105" y="453" type="curve" smooth="yes"/>
      <point x="105" y="540"/>
      <point x="106" y="655"/>
      <point x="107" y="678" type="curve"/>
      <point x="70" y="671" type="line"/>
      <point x="69" y="635"/>
      <point x="68" y="532"/>
      <point x="68" y="463" type="curve" smooth="yes"/>
      <point x="68" y="199"/>
      <point x="107" y="0"/>
      <point x="342" y="0" type="curve" smooth="yes"/>
    </contour>
  </outline>
</glyph>
<glyph name="bracketleft" format="1">
  <advance width="305"/>
  <unicode hex="005B"/>
  <outline>
    <contour>
      <point x="226" y="-129" type="line"/>
      <point x="233" y="-94" type="line"/>
      <point x="106" y="-94" type="line"/>
      <point x="106" y="782" type="line"/>
      <point x="242" y="782" type="line"/>
      <point x="249" y="818" type="line"/>
      <point x="71" y="818" type="line"/>
      <point x="71" y="-129" type="line"/>
    </contour>
  </outline>
</glyph>
<glyph name="backslash" format="1">
  <advance width="482"/>
  <unicode hex="005C"/>
  <outline>
    <contour>
      <point x="74" y="701" type="line"/>
      <point x="35" y="701" type="line"/>
      <point x="419" y="0" type="line"/>
      <point x="459" y="0" type="line"/>
    </contour>
  </outline>
</glyph>
<glyph name="asciicircum" format="1">
  <advance width="490"/>
  <unicode hex="005E"/>
  <outline>
    <contour>
      <point x="141" y="751" type="line"/>
      <point x="257" y="843" type="line"/>
      <point x="357" y="753" type="line"/>
      <point x="380" y="779" type="line"/>
      <point x="261" y="894" type="line"/>
      <point x="119" y="779" type="line"/>
    </contour>
  </outline>
</glyph>
<glyph name="underscore" format="1">
  <advance width="466"/>
  <unicode hex="005F"/>
  <outline>
    <contour>
      <point x="473" y="-56" type="line"/>
      <point x="480" y="-21" type="line"/>
      <point x="-9" y="-21" type="line"/>
      <point x="-16" y="-56" type="line"/>
    </contour>
  </outline>
</glyph>
<glyph name="grave" format="1">
  <advance width="490"/>
  <unicode hex="0060"/>
  <outline>
    <contour>
      <point x="330" y="778" type="line"/>
      <point x="213" y="913" type="line"/>
      <point x="171" y="888" type="line"/>
      <point x="300" y="758" type="line"/>
    </contour>
  </outline>
</glyph>
<glyph name="b" format="1">
  <advance width="518"/>
  <unicode hex="0062"/>
  <outline>
    <contour>
      <point x="231" y="490"/>
      <point x="151" y="448"/>
      <point x="105" y="382" type="curve"/>
      <point x="105" y="698" type="line"/>
      <point x="67" y="689" type="line"/>
      <point x="67" y="9" type="line"/>
      <point x="105" y="2" type="line"/>
      <point x="105" y="35" type="line"/>
      <point x="144" y="20"/>
      <point x="206" y="1"/>
      <point x="259" y="1" type="curve" smooth="yes"/>
      <point x="473" y="1"/>
      <point x="477" y="216"/>
      <point x="477" y="269" type="curve" smooth="yes"/>
      <point x="477" y="372"/>
      <point x="430" y="490"/>
      <point x="323" y="490" type="curve" smooth="yes"/>
    </contour>
    <contour>
      <point x="189" y="36"/>
      <point x="127" y="58"/>
      <point x="105" y="69" type="curve"/>
      <point x="105" y="293" type="line" smooth="yes"/>
      <point x="105" y="381"/>
      <point x="191" y="452"/>
      <point x="309" y="452" type="curve" smooth="yes"/>
      <point x="415" y="452"/>
      <point x="442" y="336"/>
      <point x="442" y="269" type="curve" smooth="yes"/>
      <point x="442" y="136"/>
      <point x="389" y="36"/>
      <point x="251" y="36" type="curve" smooth="yes"/>
    </contour>
  </outline>
</glyph>
<glyph name="e" format="1">
  <advance width="517"/>
  <unicode hex="0065"/>
  <outline>
    <contour>
      <point x="354" y="0"/>
      <point x="412" y="25"/>
      <point x="458" y="68" type="curve"/>
      <point x="435" y="91" type="line"/>
      <point x="396" y="54"/>
      <point x="346" y="32"/>
      <point x="294" y="32" type="curve" smooth="yes"/>
      <point x="213" y="32"/>
      <point x="142" y="84"/>
      <point x="104" y="160" type="curve"/>
      <point x="473" y="365" type="line"/>
      <point x="448" y="441"/>
      <point x="378" y="502"/>
      <point x="294" y="502" type="curve" smooth="yes"/>
      <point x="159" y="502"/>
      <point x="52" y="388"/>
      <point x="52" y="251" type="curve" smooth="yes"/>
      <point x="52" y="112"/>
      <point x="160" y="0"/>
      <point x="294" y="0" type="curve" smooth="yes"/>
    </contour>
    <contour>
      <point x="347" y="470"/>
      <point x="399" y="436"/>
      <point x="431" y="379" type="curve"/>
      <point x="93" y="190" type="line"/>
      <point x="87" y="214"/>
      <point x="84" y="233"/>
      <point x="84" y="251" type="curve" smooth="yes"/>
      <point x="84" y="367"/>
      <point x="174" y="470"/>
      <point x="294" y="470" type="curve" smooth="yes"/>
    </contour>
  </outline>
</glyph>
<glyph name="f" format="1">
  <advance width="322"/>
  <unicode hex="0066"/>
  <outline>
    <contour>
      <point x="313" y="702" type="line"/>
      <point x="295" y="702" type="line" smooth="yes"/>
      <point x="163" y="702"/>
      <point x="101" y="649"/>
      <point x="101" y="502" type="curve"/>
      <point x="21" y="502" type="line"/>
      <point x="15" y="470" type="line"/>
      <point x="101" y="470" type="line"/>
      <point x="101" y="2" type="line"/>
      <point x="139" y="9" type="line"/>
      <point x="139" y="470" type="line"/>
      <point x="270" y="470" type="line"/>
      <point x="277" y="502" type="line"/>
      <point x="144" y="502" type="line"/>
      <point x="144" y="621"/>
      <point x="171" y="668"/>
      <point x="296" y="667" type="curve"/>
    </contour>
  </outline>
</glyph>
<glyph name="i" format="1">
  <advance width="183"/>
  <unicode hex="0069"/>
  <outline>
    <contour>
      <point x="71" y="493" type="line"/>
      <point x="71" y="2" type="line"/>
      <point x="112" y="9" type="line"/>
      <point x="112" y="498" type="line"/>
    </contour>
    <contour>
      <point x="115" y="695" type="line"/>
      <point x="78" y="687" type="line"/>
      <point x="72" y="624" type="line"/>
      <point x="111" y="631" type="line"/>
    </contour>
  </outline>
</glyph>
<glyph name="j" format="1">
  <advance width="303"/>
  <unicode hex="006A"/>
  <outline>
    <contour>
      <point x="239" y="703" type="line"/>
      <point x="200" y="696" type="line"/>
      <point x="196" y="632" type="line"/>
      <point x="232" y="639" type="line"/>
    </contour>
    <contour>
      <point x="-34" y="-28" type="line"/>
      <point x="-19" y="-66"/>
      <point x="38" y="-187"/>
      <point x="124" y="-187" type="curve" smooth="yes"/>
      <point x="214" y="-187"/>
      <point x="241" y="-81"/>
      <point x="241" y="-10" type="curve" smooth="yes"/>
      <point x="241" y="7"/>
      <point x="238" y="234"/>
      <point x="233" y="511" type="curve"/>
      <point x="195" y="503" type="line"/>
      <point x="199" y="231"/>
      <point x="202" y="2"/>
      <point x="202" y="-16" type="curve" smooth="yes"/>
      <point x="202" y="-92"/>
      <point x="178" y="-155"/>
      <point x="124" y="-155" type="curve" smooth="yes"/>
      <point x="70" y="-155"/>
      <point x="24" y="-67"/>
      <point x="3" y="-21" type="curve"/>
    </contour>
  </outline>
</glyph>
<glyph name="k" format="1">
  <advance width="484"/>
  <unicode hex="006B"/>
  <outline>
    <contour>
      <point x="286" y="338"/>
      <point x="393" y="449"/>
      <point x="442" y="510" type="curve"/>
      <point x="412" y="531" type="line"/>
      <point x="330" y="425"/>
      <point x="184" y="285"/>
      <point x="107" y="245" type="curve"/>
      <point x="106" y="698" type="line"/>
      <point x="68" y="689" type="line"/>
      <point x="70" y="2" type="line"/>
      <point x="108" y="9" type="line"/>
      <point x="107" y="205" type="line"/>
      <point x="135" y="221"/>
      <point x="170" y="247"/>
      <point x="214" y="280" type="curve"/>
      <point x="264" y="227"/>
      <point x="358" y="115"/>
      <point x="430" y="5" type="curve"/>
      <point x="458" y="30" type="line"/>
      <point x="353" y="167"/>
      <point x="250" y="294"/>
      <point x="242" y="303" type="curve"/>
    </contour>
  </outline>
</glyph>
<glyph name="l" format="1">
  <advance width="216"/>
  <unicode hex="006C"/>
  <outline>
    <contour>
      <point x="91" y="689" type="line"/>
      <point x="91" y="2" type="line"/>
      <point x="129" y="9" type="line"/>
      <point x="129" y="698" type="line"/>
    </contour>
  </outline>
</glyph>
<glyph name="t" format="1">
  <advance width="363"/>
  <unicode hex="0074"/>
  <outline>
    <contour>
      <point x="348" y="502" type="line"/>
      <point x="205" y="502" type="line"/>
      <point x="205" y="676" type="line"/>
      <point x="166" y="669" type="line"/>
      <point x="166" y="502" type="line"/>
      <point x="22" y="502" type="line"/>
      <point x="22" y="465" type="line"/>
      <point x="166" y="465" type="line"/>
      <point x="166" y="2" type="line"/>
      <point x="205" y="9" type="line"/>
      <point x="205" y="465" type="line"/>
      <point x="348" y="465" type="line"/>
    </contour>
  </outline>
</glyph>
<glyph name="x" format="1">
  <advance width="461"/>
  <unicode hex="0078"/>
  <outline>
    <contour>
      <point x="421" y="21" type="line"/>
      <point x="256" y="257" type="line"/>
      <point x="438" y="476" type="line"/>
      <point x="410" y="500" type="line"/>
      <point x="234" y="288" type="line"/>
      <point x="87" y="500" type="line"/>
      <point x="57" y="479" type="line"/>
      <point x="210" y="259" type="line"/>
      <point x="14" y="24" type="line"/>
      <point x="42" y="0" type="line"/>
      <point x="231" y="228" type="line"/>
      <point x="391" y="0" type="line"/>
    </contour>
  </outline>
</glyph>
<glyph name="braceleft" format="1">
  <advance width="364"/>
  <unicode hex="007B"/>
  <outline>
    <contour>
      <point x="69" y="337" type="line"/>
      <point x="113" y="322"/>
      <point x="146" y="280"/>
      <point x="146" y="233" type="curve" smooth="yes"/>
      <point x="146" y="14" type="line" smooth="yes"/>
      <point x="146" y="-92"/>
      <point x="244" y="-126"/>
      <point x="305" y="-130" type="curve"/>
      <point x="307" y="-94" type="line"/>
      <point x="222" y="-84"/>
      <point x="182" y="-45"/>
      <point x="182" y="14" type="curve" smooth="yes"/>
      <point x="182" y="225" type="line" smooth="yes"/>
      <point x="182" y="281"/>
      <point x="152" y="326"/>
      <point x="114" y="354" type="curve"/>
      <point x="172" y="400"/>
      <point x="182" y="452"/>
      <point x="182" y="483" type="curve" smooth="yes"/>
      <point x="182" y="679" type="line" smooth="yes"/>
      <point x="182" y="743"/>
      <point x="234" y="782"/>
      <point x="304" y="787" type="curve"/>
      <point x="306" y="823" type="line"/>
      <point x="244" y="818"/>
      <point x="146" y="781"/>
      <point x="146" y="679" type="curve" smooth="yes"/>
      <point x="146" y="482" type="line" smooth="yes"/>
      <point x="146" y="428"/>
      <point x="116" y="390"/>
      <point x="69" y="371" type="curve"/>
    </contour>
  </outline>
</glyph>
<glyph name="braceright" format="1">
  <advance width="364"/>
  <unicode hex="007D"/>
  <outline>
    <contour>
      <point x="296" y="356" type="line"/>
      <point x="252" y="371"/>
      <point x="219" y="413"/>
      <point x="219" y="460" type="curve" smooth="yes"/>
      <point x="219" y="679" type="line" smooth="yes"/>
      <point x="219" y="785"/>
      <point x="121" y="819"/>
      <point x="60" y="823" type="curve"/>
      <point x="58" y="787" type="line"/>
      <point x="143" y="777"/>
      <point x="183" y="738"/>
      <point x="183" y="679" type="curve" smooth="yes"/>
      <point x="183" y="468" type="line" smooth="yes"/>
      <point x="183" y="412"/>
      <point x="213" y="367"/>
      <point x="251" y="339" type="curve"/>
      <point x="193" y="293"/>
      <point x="183" y="241"/>
      <point x="183" y="210" type="curve" smooth="yes"/>
      <point x="183" y="14" type="line" smooth="yes"/>
      <point x="183" y="-50"/>
      <point x="131" y="-89"/>
      <point x="61" y="-94" type="curve"/>
      <point x="59" y="-130" type="line"/>
      <point x="121" y="-125"/>
      <point x="219" y="-88"/>
      <point x="219" y="14" type="curve" smooth="yes"/>
      <point x="219" y="211" type="line" smooth="yes"/>
      <point x="219" y="265"/>
      <point x="249" y="304"/>
      <point x="296" y="322" type="curve"/>
    </contour>
  </outline>
</glyph>
<glyph name="cent" format="1">
  <advance width="496"/>
  <unicode hex="00A2"/>
  <outline>
    <contour>
      <point x="267" y="101" type="line"/>
      <point x="351" y="104"/>
      <point x="414" y="136"/>
      <point x="451" y="191" type="curve"/>
      <point x="426" y="216" type="line"/>
      <point x="394" y="170"/>
      <point x="335" y="134"/>
      <point x="268" y="134" type="curve"/>
      <point x="278" y="571" type="line"/>
      <point x="327" y="571"/>
      <point x="368" y="546"/>
      <point x="393" y="513" type="curve"/>
      <point x="420" y="539" type="line"/>
      <point x="388" y="578"/>
      <point x="339" y="603"/>
      <point x="280" y="603" type="curve"/>
      <point x="282" y="691" type="line"/>
      <point x="250" y="681" type="line"/>
      <point x="248" y="601" type="line"/>
      <point x="123" y="563"/>
      <point x="53" y="430"/>
      <point x="53" y="317" type="curve" smooth="yes"/>
      <point x="53" y="221"/>
      <point x="118" y="128"/>
      <point x="236" y="103" type="curve"/>
      <point x="234" y="4" type="line"/>
      <point x="265" y="15" type="line"/>
    </contour>
    <contour>
      <point x="237" y="136" type="line"/>
      <point x="138" y="159"/>
      <point x="88" y="239"/>
      <point x="88" y="317" type="curve" smooth="yes"/>
      <point x="88" y="390"/>
      <point x="127" y="522"/>
      <point x="247" y="568" type="curve"/>
    </contour>
  </outline>
</glyph>
<glyph name="currency" format="1">
  <advance width="490"/>
  <unicode hex="00A4"/>
  <outline>
    <contour>
      <point x="405" y="285"/>
      <point x="393" y="320"/>
      <point x="370" y="350" type="curve"/>
      <point x="444" y="425" type="line"/>
      <point x="421" y="448" type="line"/>
      <point x="347" y="373" type="line"/>
      <point x="317" y="395"/>
      <point x="284" y="406"/>
      <point x="250" y="406" type="curve" smooth="yes"/>
      <point x="217" y="406"/>
      <point x="184" y="395"/>
      <point x="153" y="373" type="curve"/>
      <point x="78" y="448" type="line"/>
      <point x="55" y="425" type="line"/>
      <point x="129" y="350" type="line"/>
      <point x="108" y="320"/>
      <point x="94" y="284"/>
      <point x="94" y="251" type="curve" smooth="yes"/>
      <point x="94" y="218"/>
      <point x="106" y="184"/>
      <point x="128" y="154" type="curve"/>
      <point x="55" y="81" type="line"/>
      <point x="78" y="58" type="line"/>
      <point x="150" y="130" type="line"/>
      <point x="180" y="108"/>
      <point x="215" y="95"/>
      <point x="250" y="95" type="curve" smooth="yes"/>
      <point x="284" y="95"/>
      <point x="319" y="108"/>
      <point x="349" y="130" type="curve"/>
      <point x="421" y="59" type="line"/>
      <point x="444" y="82" type="line"/>
      <point x="372" y="154" type="line"/>
      <point x="393" y="184"/>
      <point x="405" y="218"/>
      <point x="405" y="251" type="curve" smooth="yes"/>
    </contour>
    <contour>
      <point x="181" y="127"/>
      <point x="126" y="182"/>
      <point x="126" y="251" type="curve" smooth="yes"/>
      <point x="126" y="320"/>
      <point x="181" y="374"/>
      <point x="250" y="374" type="curve" smooth="yes"/>
      <point x="319" y="374"/>
      <point x="373" y="320"/>
      <point x="373" y="251" type="curve" smooth="yes"/>
      <point x="373" y="182"/>
      <point x="319" y="127"/>
      <point x="250" y="127" type="curve" smooth="yes"/>
    </contour>
  </outline>
</glyph>
<glyph name="yen" format="1">
  <advance width="575"/>
  <unicode hex="00A5"/>
  <outline>
    <contour>
      <point x="267" y="300" type="line"/>
      <point x="267" y="175" type="line"/>
      <point x="120" y="175" type="line"/>
      <point x="113" y="140" type="line"/>
      <point x="267" y="140" type="line"/>
      <point x="267" y="2" type="line"/>
      <point x="302" y="9" type="line"/>
      <point x="302" y="140" type="line"/>
      <point x="448" y="140" type="line"/>
      <point x="456" y="175" type="line"/>
      <point x="302" y="175" type="line"/>
      <point x="302" y="300" type="line"/>
      <point x="448" y="300" type="line"/>
      <point x="456" y="334" type="line"/>
      <point x="327" y="334" type="line"/>
      <point x="511" y="697" type="line"/>
      <point x="471" y="697" type="line"/>
      <point x="286" y="328" type="line"/>
      <point x="111" y="697" type="line"/>
      <point x="71" y="697" type="line"/>
      <point x="243" y="334" type="line"/>
      <point x="120" y="334" type="line"/>
      <point x="113" y="300" type="line"/>
    </contour>
  </outline>
</glyph>
<glyph name="copyright" format="1">
  <advance width="566"/>
  <unicode hex="00A9"/>
  <outline>
    <contour>
      <point x="411" y="246"/>
      <point x="510" y="348"/>
      <point x="510" y="472" type="curve" smooth="yes"/>
      <point x="510" y="596"/>
      <point x="411" y="698"/>
      <point x="289" y="698" type="curve" smooth="yes"/>
      <point x="167" y="698"/>
      <point x="68" y="596"/>
      <point x="68" y="472" type="curve" smooth="yes"/>
      <point x="68" y="348"/>
      <point x="167" y="246"/>
      <point x="289" y="246" type="curve" smooth="yes"/>
    </contour>
    <contour>
      <point x="396" y="671"/>
      <point x="483" y="582"/>
      <point x="483" y="472" type="curve" smooth="yes"/>
      <point x="483" y="361"/>
      <point x="396" y="273"/>
      <point x="289" y="273" type="curve" smooth="yes"/>
      <point x="182" y="273"/>
      <point x="95" y="361"/>
      <point x="95" y="472" type="curve" smooth="yes"/>
      <point x="95" y="582"/>
      <point x="182" y="671"/>
      <point x="289" y="671" type="curve" smooth="yes"/>
    </contour>
    <contour>
      <point x="332" y="362"/>
      <point x="378" y="387"/>
      <point x="399" y="435" type="curve"/>
      <point x="372" y="444" type="line"/>
      <point x="357" y="408"/>
      <point x="330" y="390"/>
      <point x="281" y="390" type="curve" smooth="yes"/>
      <point x="240" y="390"/>
      <point x="196" y="423"/>
      <point x="196" y="473" type="curve" smooth="yes"/>
      <point x="196" y="502"/>
      <point x="206" y="568"/>
      <point x="292" y="568" type="curve" smooth="yes"/>
      <point x="312" y="568"/>
      <point x="338" y="556"/>
      <point x="356" y="539" type="curve"/>
      <point x="376" y="557" type="line"/>
      <point x="350" y="585"/>
      <point x="317" y="595"/>
      <point x="292" y="595" type="curve" smooth="yes"/>
      <point x="217" y="595"/>
      <point x="168" y="547"/>
      <point x="168" y="473" type="curve" smooth="yes"/>
      <point x="168" y="413"/>
      <point x="219" y="362"/>
      <point x="281" y="362" type="curve" smooth="yes"/>
    </contour>
  </outline>
</glyph>
<glyph name="ordfeminine" format="1">
  <advance width="240"/>
  <unicode hex="00AA"/>
  <outline>
    <contour>
      <point x="240" y="661" type="line"/>
      <point x="211" y="677"/>
      <point x="171" y="684"/>
      <point x="149" y="684" type="curve" smooth="yes"/>
      <point x="61" y="684"/>
      <point x="3" y="599"/>
      <point x="3" y="505" type="curve" smooth="yes"/>
      <point x="3" y="429"/>
      <point x="51" y="373"/>
      <point x="118" y="373" type="curve" smooth="yes"/>
      <point x="141" y="373"/>
      <point x="172" y="382"/>
      <point x="210" y="403" type="curve"/>
      <point x="210" y="369" type="line"/>
      <point x="241" y="376" type="line"/>
    </contour>
    <contour>
      <point x="209" y="441" type="line"/>
      <point x="193" y="428"/>
      <point x="152" y="403"/>
      <point x="116" y="403" type="curve" smooth="yes"/>
      <point x="67" y="403"/>
      <point x="34" y="444"/>
      <point x="34" y="506" type="curve" smooth="yes"/>
      <point x="34" y="541"/>
      <point x="56" y="654"/>
      <point x="149" y="654" type="curve" smooth="yes"/>
      <point x="168" y="654"/>
      <point x="194" y="649"/>
      <point x="212" y="639" type="curve"/>
    </contour>
  </outline>
</glyph>
<glyph name="registered" format="1">
  <advance width="566"/>
  <unicode hex="00AE"/>
  <outline>
    <contour>
      <point x="411" y="246"/>
      <point x="510" y="348"/>
      <point x="510" y="472" type="curve" smooth="yes"/>
      <point x="510" y="596"/>
      <point x="411" y="698"/>
      <point x="289" y="698" type="curve" smooth="yes"/>
      <point x="167" y="698"/>
      <point x="68" y="596"/>
      <point x="68" y="472" type="curve" smooth="yes"/>
      <point x="68" y="348"/>
      <point x="167" y="246"/>
      <point x="289" y="246" type="curve" smooth="yes"/>
    </contour>
    <contour>
      <point x="396" y="671"/>
      <point x="483" y="582"/>
      <point x="483" y="472" type="curve" smooth="yes"/>
      <point x="483" y="361"/>
      <point x="396" y="273"/>
      <point x="289" y="273" type="curve" smooth="yes"/>
      <point x="182" y="273"/>
      <point x="95" y="361"/>
      <point x="95" y="472" type="curve" smooth="yes"/>
      <point x="95" y="582"/>
      <point x="182" y="671"/>
      <point x="289" y="671" type="curve" smooth="yes"/>
    </contour>
    <contour>
      <point x="278" y="462" type="line"/>
      <point x="334" y="474"/>
      <point x="399" y="494"/>
      <point x="399" y="531" type="curve" smooth="yes"/>
      <point x="399" y="570"/>
      <point x="361" y="594"/>
      <point x="290" y="594" type="curve" smooth="yes"/>
      <point x="223" y="594"/>
      <point x="221" y="584"/>
      <point x="219" y="573" type="curve" smooth="yes"/>
      <point x="188" y="376" type="line"/>
      <point x="215" y="380" type="line"/>
      <point x="230" y="462" type="line"/>
      <point x="359" y="373" type="line"/>
      <point x="378" y="393" type="line"/>
    </contour>
    <contour>
      <point x="245" y="564" type="line"/>
      <point x="264" y="567"/>
      <point x="274" y="567"/>
      <point x="284" y="567" type="curve" smooth="yes"/>
      <point x="325" y="567"/>
      <point x="372" y="557"/>
      <point x="372" y="531" type="curve" smooth="yes"/>
      <point x="372" y="514"/>
      <point x="314" y="489"/>
      <point x="233" y="483" type="curve"/>
    </contour>
  </outline>
</glyph>
<glyph name="macron" format="1">
  <advance width="490"/>
  <unicode hex="00AF"/>
  <outline>
    <contour>
      <point x="367" y="611" type="line"/>
      <point x="374" y="647" type="line"/>
      <point x="134" y="647" type="line"/>
      <point x="126" y="611" type="line"/>
    </contour>
  </outline>
</glyph>
<glyph name="mu" format="1">
  <advance width="505"/>
  <unicode hex="00B5"/>
  <outline>
    <contour>
      <point x="68" y="160"/>
      <point x="95" y="-111"/>
      <point x="102" y="-172" type="curve"/>
      <point x="139" y="-179" type="line"/>
      <point x="117" y="53" type="line"/>
      <point x="139" y="1"/>
      <point x="206" y="-5"/>
      <point x="216" y="-5" type="curve" smooth="yes"/>
      <point x="294" y="-5"/>
      <point x="351" y="37"/>
      <point x="404" y="101" type="curve"/>
      <point x="404" y="3" type="line"/>
      <point x="448" y="10" type="line"/>
      <point x="448" y="503" type="line"/>
      <point x="408" y="496" type="line"/>
      <point x="408" y="186" type="line" smooth="yes"/>
      <point x="408" y="156"/>
      <point x="400" y="145"/>
      <point x="393" y="134" type="curve"/>
      <point x="368" y="98"/>
      <point x="298" y="29"/>
      <point x="227" y="29" type="curve" smooth="yes"/>
      <point x="156" y="29"/>
      <point x="103" y="62"/>
      <point x="103" y="324" type="curve" smooth="yes"/>
      <point x="103" y="356"/>
      <point x="114" y="467"/>
      <point x="119" y="503" type="curve"/>
      <point x="83" y="496" type="line"/>
      <point x="78" y="458"/>
      <point x="68" y="372"/>
      <point x="68" y="294" type="curve" smooth="yes"/>
    </contour>
  </outline>
</glyph>
<glyph name="cedilla" format="1">
  <advance width="490"/>
  <unicode hex="00B8"/>
  <outline>
    <contour>
      <point x="220" y="20" type="line"/>
      <point x="212" y="15" type="line"/>
      <point x="188" y="-52" type="line"/>
      <point x="209" y="-72" type="line"/>
      <point x="217" y="-68"/>
      <point x="229" y="-64"/>
      <point x="240" y="-64" type="curve" smooth="yes"/>
      <point x="274" y="-64"/>
      <point x="301" y="-91"/>
      <point x="301" y="-125" type="curve" smooth="yes"/>
      <point x="301" y="-159"/>
      <point x="274" y="-186"/>
      <point x="240" y="-186" type="curve" smooth="yes"/>
      <point x="219" y="-186"/>
      <point x="206" y="-177"/>
      <point x="195" y="-168" type="curve"/>
      <point x="178" y="-184" type="line"/>
      <point x="194" y="-200"/>
      <point x="216" y="-209"/>
      <point x="240" y="-209" type="curve" smooth="yes"/>
      <point x="287" y="-209"/>
      <point x="324" y="-172"/>
      <point x="324" y="-125" type="curve" smooth="yes"/>
      <point x="324" y="-74"/>
      <point x="285" y="-41"/>
      <point x="232" y="-41" type="curve" smooth="yes"/>
      <point x="218" y="-41" type="line"/>
    </contour>
  </outline>
</glyph>
<glyph name="onesuperior" format="1">
  <advance width="169"/>
  <unicode hex="00B9"/>
  <outline>
    <contour>
      <point x="16" y="473" type="line"/>
      <point x="162" y="473" type="line"/>
      <point x="168" y="500" type="line"/>
      <point x="112" y="500" type="line"/>
      <point x="117" y="857" type="line"/>
      <point x="8" y="759" type="line"/>
      <point x="25" y="738" type="line"/>
      <point x="89" y="796" type="line"/>
      <point x="85" y="500" type="line"/>
      <point x="20" y="500" type="line"/>
    </contour>
  </outline>
</glyph>
<glyph name="Aring" format="1">
  <advance width="613"/>
  <unicode hex="00C5"/>
  <outline>
    <contour>
      <point x="371" y="743"/>
      <point x="439" y="783"/>
      <point x="439" y="853" type="curve" smooth="yes"/>
      <point x="439" y="900"/>
      <point x="398" y="948"/>
      <point x="332" y="948" type="curve" smooth="yes"/>
      <point x="262" y="948"/>
      <point x="205" y="897"/>
      <point x="205" y="838" type="curve" smooth="yes"/>
      <point x="205" y="786"/>
      <point x="249" y="743"/>
      <point x="312" y="743" type="curve" smooth="yes"/>
    </contour>
    <contour>
      <point x="377" y="923"/>
      <point x="413" y="891"/>
      <point x="413" y="850" type="curve" smooth="yes"/>
      <point x="413" y="804"/>
      <point x="362" y="767"/>
      <point x="314" y="767" type="curve" smooth="yes"/>
      <point x="265" y="767"/>
      <point x="230" y="797"/>
      <point x="230" y="838" type="curve" smooth="yes"/>
      <point x="230" y="890"/>
      <point x="289" y="923"/>
      <point x="329" y="923" type="curve" smooth="yes"/>
    </contour>
    <contour>
      <point x="355" y="679" type="line"/>
      <point x="296" y="668" type="line"/>
      <point x="137" y="241" type="line"/>
      <point x="64" y="227" type="line"/>
      <point x="72" y="191" type="line"/>
      <point x="120" y="201" type="line"/>
      <point x="54" y="22" type="line"/>
      <point x="87" y="4" type="line"/>
      <point x="164" y="211" type="line"/>
      <point x="451" y="271" type="line"/>
      <point x="538" y="7" type="line"/>
      <point x="568" y="29" type="line"/>
    </contour>
    <contour>
      <point x="180" y="251" type="line"/>
      <point x="327" y="646" type="line"/>
      <point x="439" y="304" type="line"/>
    </contour>
  </outline>
</glyph>
<glyph name="AE" format="1">
  <advance width="1039"/>
  <unicode hex="00C6"/>
  <outline>
    <contour>
      <point x="553" y="37" type="line"/>
      <point x="553" y="336" type="line"/>
      <point x="934" y="336" type="line"/>
      <point x="945" y="373" type="line"/>
      <point x="553" y="373" type="line"/>
      <point x="553" y="644" type="line"/>
      <point x="981" y="644" type="line"/>
      <point x="989" y="681" type="line"/>
      <point x="521" y="681" type="line"/>
      <point x="252" y="300" type="line"/>
      <point x="159" y="280" type="line"/>
      <point x="166" y="246" type="line"/>
      <point x="222" y="260" type="line"/>
      <point x="54" y="21" type="line"/>
      <point x="85" y="3" type="line"/>
      <point x="271" y="268" type="line"/>
      <point x="516" y="318" type="line"/>
      <point x="516" y="0" type="line"/>
      <point x="978" y="0" type="line"/>
      <point x="993" y="37" type="line"/>
    </contour>
    <contour>
      <point x="516" y="354" type="line"/>
      <point x="302" y="310" type="line"/>
      <point x="516" y="611" type="line"/>
    </contour>
  </outline>
</glyph>
<glyph name="Ccedilla" format="1">
  <advance width="621"/>
  <unicode hex="00C7"/>
  <outline>
    <contour>
      <point x="325" y="-184"/>
      <point x="312" y="-175"/>
      <point x="300" y="-166" type="curve"/>
      <point x="284" y="-182" type="line"/>
      <point x="299" y="-198"/>
      <point x="321" y="-207"/>
      <point x="345" y="-207" type="curve" smooth="yes"/>
      <point x="391" y="-207"/>
      <point x="428" y="-170"/>
      <point x="428" y="-124" type="curve" smooth="yes"/>
      <point x="428" y="-73"/>
      <point x="389" y="-40"/>
      <point x="337" y="-40" type="curve" smooth="yes"/>
      <point x="323" y="-40" type="line"/>
      <point x="323" y="-1" type="line"/>
      <point x="428" y="-1"/>
      <point x="525" y="47"/>
      <point x="575" y="124" type="curve"/>
      <point x="552" y="147" type="line"/>
      <point x="497" y="68"/>
      <point x="433" y="33"/>
      <point x="334" y="33" type="curve" smooth="yes"/>
      <point x="196" y="33"/>
      <point x="86" y="150"/>
      <point x="86" y="292" type="curve" smooth="yes"/>
      <point x="86" y="433"/>
      <point x="199" y="647"/>
      <point x="341" y="647" type="curve" smooth="yes"/>
      <point x="428" y="647"/>
      <point x="479" y="609"/>
      <point x="508" y="575" type="curve"/>
      <point x="508" y="555" type="line"/>
      <point x="535" y="555" type="line"/>
      <point x="535" y="657" type="line"/>
      <point x="508" y="657" type="line"/>
      <point x="508" y="623" type="line"/>
      <point x="458" y="661"/>
      <point x="401" y="681"/>
      <point x="347" y="681" type="curve" smooth="yes"/>
      <point x="171" y="681"/>
      <point x="53" y="451"/>
      <point x="53" y="290" type="curve" smooth="yes"/>
      <point x="53" y="137"/>
      <point x="166" y="16"/>
      <point x="311" y="-1" type="curve"/>
      <point x="293" y="-52" type="line"/>
      <point x="314" y="-71" type="line"/>
      <point x="322" y="-67"/>
      <point x="334" y="-63"/>
      <point x="345" y="-63" type="curve" smooth="yes"/>
      <point x="379" y="-63"/>
      <point x="403" y="-90"/>
      <point x="403" y="-124" type="curve" smooth="yes"/>
      <point x="403" y="-158"/>
      <point x="379" y="-184"/>
      <point x="345" y="-184" type="curve" smooth="yes"/>
    </contour>
  </outline>
</glyph>
<glyph name="Ecircumflex" format="1">
  <advance width="601"/>
  <unicode hex="00CA"/>
  <outline>
    <contour>
      <point x="198" y="743" type="line"/>
      <point x="314" y="833" type="line"/>
      <point x="413" y="745" type="line"/>
      <point x="435" y="771" type="line"/>
      <point x="317" y="884" type="line"/>
      <point x="177" y="771" type="line"/>
    </contour>
    <contour>
      <point x="105" y="37" type="line"/>
      <point x="105" y="336" type="line"/>
      <point x="486" y="336" type="line"/>
      <point x="497" y="373" type="line"/>
      <point x="105" y="373" type="line"/>
      <point x="105" y="644" type="line"/>
      <point x="533" y="644" type="line"/>
      <point x="541" y="681" type="line"/>
      <point x="68" y="681" type="line"/>
      <point x="68" y="0" type="line"/>
      <point x="530" y="0" type="line"/>
      <point x="545" y="37" type="line"/>
    </contour>
  </outline>
</glyph>
<glyph name="Edieresis" format="1">
  <advance width="601"/>
  <unicode hex="00CB"/>
  <outline>
    <contour>
      <point x="258" y="822" type="line"/>
      <point x="204" y="814" type="line"/>
      <point x="197" y="750" type="line"/>
      <point x="251" y="758" type="line"/>
    </contour>
    <contour>
      <point x="424" y="822" type="line"/>
      <point x="370" y="814" type="line"/>
      <point x="363" y="750" type="line"/>
      <point x="417" y="758" type="line"/>
    </contour>
    <contour>
      <point x="105" y="37" type="line"/>
      <point x="105" y="336" type="line"/>
      <point x="486" y="336" type="line"/>
      <point x="497" y="373" type="line"/>
      <point x="105" y="373" type="line"/>
      <point x="105" y="644" type="line"/>
      <point x="533" y="644" type="line"/>
      <point x="541" y="681" type="line"/>
      <point x="68" y="681" type="line"/>
      <point x="68" y="0" type="line"/>
      <point x="530" y="0" type="line"/>
      <point x="545" y="37" type="line"/>
    </contour>
  </outline>
</glyph>
<glyph name="Igrave" format="1">
  <advance width="427"/>
  <unicode hex="00CC"/>
  <outline>
    <contour>
      <point x="288" y="770" type="line"/>
      <point x="172" y="904" type="line"/>
      <point x="131" y="879" type="line"/>
      <point x="259" y="750" type="line"/>
    </contour>
    <contour>
      <point x="361" y="644" type="line"/>
      <point x="368" y="681" type="line"/>
      <point x="73" y="681" type="line"/>
      <point x="66" y="644" type="line"/>
      <point x="201" y="644" type="line"/>
      <point x="201" y="37" type="line"/>
      <point x="73" y="37" type="line"/>
      <point x="66" y="0" type="line"/>
      <point x="361" y="0" type="line"/>
      <point x="368" y="37" type="line"/>
      <point x="238" y="37" type="line"/>
      <point x="238" y="644" type="line"/>
    </contour>
  </outline>
</glyph>
<glyph name="Idieresis" format="1">
  <advance width="427"/>
  <unicode hex="00CF"/>
  <outline>
    <contour>
      <point x="171" y="822" type="line"/>
      <point x="116" y="814" type="line"/>
      <point x="110" y="750" type="line"/>
      <point x="164" y="758" type="line"/>
    </contour>
    <contour>
      <point x="337" y="822" type="line"/>
      <point x="282" y="814" type="line"/>
      <point x="276" y="750" type="line"/>
      <point x="330" y="758" type="line"/>
    </contour>
    <contour>
      <point x="361" y="644" type="line"/>
      <point x="368" y="681" type="line"/>
      <point x="73" y="681" type="line"/>
      <point x="66" y="644" type="line"/>
      <point x="201" y="644" type="line"/>
      <point x="201" y="37" type="line"/>
      <point x="73" y="37" type="line"/>
      <point x="66" y="0" type="line"/>
      <point x="361" y="0" type="line"/>
      <point x="368" y="37" type="line"/>
      <point x="238" y="37" type="line"/>
      <point x="238" y="644" type="line"/>
    </contour>
  </outline>
</glyph>
<glyph name="Ntilde" format="1">
  <advance width="605"/>
  <unicode hex="00D1"/>
  <outline>
    <contour>
      <point x="513" y="672" type="line"/>
      <point x="513" y="45" type="line"/>
      <point x="114" y="680" type="line"/>
      <point x="68" y="666" type="line"/>
      <point x="69" y="3" type="line"/>
      <point x="103" y="11" type="line"/>
      <point x="103" y="631" type="line"/>
      <point x="495" y="1" type="line"/>
      <point x="547" y="12" type="line"/>
      <point x="547" y="679" type="line"/>
    </contour>
    <contour>
      <point x="305" y="845"/>
      <point x="283" y="876"/>
      <point x="241" y="876" type="curve" smooth="yes"/>
      <point x="189" y="876"/>
      <point x="157" y="825"/>
      <point x="141" y="781" type="curve"/>
      <point x="171" y="771" type="line"/>
      <point x="181" y="802"/>
      <point x="207" y="844"/>
      <point x="241" y="844" type="curve" smooth="yes"/>
      <point x="261" y="844"/>
      <point x="272" y="838"/>
      <point x="298" y="801" type="curve" smooth="yes"/>
      <point x="317" y="774"/>
      <point x="340" y="743"/>
      <point x="381" y="743" type="curve" smooth="yes"/>
      <point x="425" y="743"/>
      <point x="468" y="789"/>
      <point x="485" y="845" type="curve"/>
      <point x="454" y="855" type="line"/>
      <point x="443" y="821"/>
      <point x="419" y="774"/>
      <point x="381" y="774" type="curve" smooth="yes"/>
      <point x="360" y="774"/>
      <point x="349" y="781"/>
      <point x="323" y="820" type="curve"/>
    </contour>
  </outline>
</glyph>
<glyph name="Ocircumflex" format="1">
  <advance width="650"/>
  <unicode hex="00D4"/>
  <outline>
    <contour>
      <point x="250" y="743" type="line"/>
      <point x="366" y="833" type="line"/>
      <point x="465" y="745" type="line"/>
      <point x="488" y="771" type="line"/>
      <point x="369" y="884" type="line"/>
      <point x="228" y="771" type="line"/>
    </contour>
    <contour>
      <point x="464" y="-2"/>
      <point x="598" y="167"/>
      <point x="598" y="368" type="curve" smooth="yes"/>
      <point x="598" y="540"/>
      <point x="494" y="682"/>
      <point x="352" y="682" type="curve" smooth="yes"/>
      <point x="196" y="682"/>
      <point x="62" y="515"/>
      <point x="62" y="314" type="curve" smooth="yes"/>
      <point x="62" y="144"/>
      <point x="165" y="-2"/>
      <point x="308" y="-2" type="curve" smooth="yes"/>
    </contour>
    <contour>
      <point x="477" y="649"/>
      <point x="564" y="508"/>
      <point x="564" y="364" type="curve" smooth="yes"/>
      <point x="564" y="183"/>
      <point x="440" y="31"/>
      <point x="308" y="31" type="curve" smooth="yes"/>
      <point x="185" y="31"/>
      <point x="96" y="159"/>
      <point x="96" y="312" type="curve" smooth="yes"/>
      <point x="96" y="500"/>
      <point x="217" y="649"/>
      <point x="348" y="649" type="curve" smooth="yes"/>
    </contour>
  </outline>
</glyph>
<glyph name="Oslash" format="1">
  <advance width="650"/>
  <unicode hex="00D8"/>
  <outline>
    <contour>
      <point x="538" y="721" type="line"/>
      <point x="509" y="738" type="line"/>
      <point x="462" y="651" type="line"/>
      <point x="424" y="673"/>
      <point x="387" y="683"/>
      <point x="352" y="683" type="curve" smooth="yes"/>
      <point x="189" y="683"/>
      <point x="62" y="519"/>
      <point x="62" y="311" type="curve" smooth="yes"/>
      <point x="62" y="223"/>
      <point x="91" y="139"/>
      <point x="142" y="77" type="curve"/>
      <point x="92" y="-13" type="line"/>
      <point x="120" y="-31" type="line"/>
      <point x="167" y="53" type="line"/>
      <point x="212" y="19"/>
      <point x="262" y="-1"/>
      <point x="308" y="-1" type="curve" smooth="yes"/>
      <point x="464" y="-1"/>
      <point x="598" y="168"/>
      <point x="598" y="369" type="curve" smooth="yes"/>
      <point x="598" y="467"/>
      <point x="566" y="572"/>
      <point x="489" y="633" type="curve"/>
    </contour>
    <contour>
      <point x="160" y="107" type="line"/>
      <point x="118" y="163"/>
      <point x="96" y="235"/>
      <point x="96" y="314" type="curve" smooth="yes"/>
      <point x="96" y="501"/>
      <point x="214" y="650"/>
      <point x="344" y="650" type="curve" smooth="yes"/>
      <point x="377" y="650"/>
      <point x="410" y="640"/>
      <point x="444" y="620" type="curve"/>
    </contour>
    <contour>
      <point x="264" y="32"/>
      <point x="222" y="49"/>
      <point x="183" y="82" type="curve"/>
      <point x="471" y="600" type="line"/>
      <point x="538" y="543"/>
      <point x="564" y="447"/>
      <point x="564" y="365" type="curve" smooth="yes"/>
      <point x="564" y="219"/>
      <point x="466" y="32"/>
      <point x="308" y="32" type="curve" smooth="yes"/>
    </contour>
  </outline>
</glyph>
<glyph name="germandbls" format="1">
  <advance width="515"/>
  <unicode hex="00DF"/>
  <outline>
    <contour>
      <point x="381" y="392"/>
      <point x="402" y="444"/>
      <point x="402" y="486" type="curve" smooth="yes"/>
      <point x="402" y="574"/>
      <point x="331" y="646"/>
      <point x="244" y="646" type="curve" smooth="yes"/>
      <point x="156" y="646"/>
      <point x="81" y="574"/>
      <point x="81" y="486" type="curve" smooth="yes"/>
      <point x="81" y="-6" type="line"/>
      <point x="118" y="23" type="line"/>
      <point x="118" y="486" type="line" smooth="yes"/>
      <point x="118" y="555"/>
      <point x="175" y="612"/>
      <point x="244" y="612" type="curve" smooth="yes"/>
      <point x="314" y="612"/>
      <point x="369" y="555"/>
      <point x="369" y="486" type="curve" smooth="yes"/>
      <point x="369" y="433"/>
      <point x="339" y="376"/>
      <point x="245" y="359" type="curve"/>
      <point x="234" y="325" type="line"/>
      <point x="262" y="331"/>
      <point x="278" y="333"/>
      <point x="299" y="333" type="curve" smooth="yes"/>
      <point x="394" y="333"/>
      <point x="456" y="251"/>
      <point x="456" y="171" type="curve" smooth="yes"/>
      <point x="456" y="82"/>
      <point x="382" y="8"/>
      <point x="296" y="8" type="curve" smooth="yes"/>
      <point x="272" y="8"/>
      <point x="245" y="15"/>
      <point x="209" y="33" type="curve"/>
      <point x="194" y="4" type="line"/>
      <point x="239" y="-19"/>
      <point x="266" y="-25"/>
      <point x="296" y="-25" type="curve" smooth="yes"/>
      <point x="403" y="-25"/>
      <point x="491" y="66"/>
      <point x="491" y="172" type="curve" smooth="yes"/>
      <point x="491" y="259"/>
      <point x="435" y="338"/>
      <point x="342" y="362" type="curve"/>
    </contour>
  </outline>
</glyph>
<glyph name="atilde" format="1">
  <advance width="503"/>
  <unicode hex="00E3"/>
  <outline>
    <contour>
      <point x="437" y="475" type="line"/>
      <point x="392" y="497"/>
      <point x="342" y="513"/>
      <point x="289" y="513" type="curve" smooth="yes"/>
      <point x="116" y="513"/>
      <point x="52" y="325"/>
      <point x="52" y="222" type="curve" smooth="yes"/>
      <point x="52" y="95"/>
      <point x="131" y="7"/>
      <point x="238" y="7" type="curve" smooth="yes"/>
      <point x="293" y="7"/>
      <point x="357" y="39"/>
      <point x="399" y="65" type="curve"/>
      <point x="399" y="2" type="line"/>
      <point x="437" y="10" type="line"/>
    </contour>
    <contour>
      <point x="129" y="46"/>
      <point x="91" y="144"/>
      <point x="91" y="224" type="curve" smooth="yes"/>
      <point x="91" y="316"/>
      <point x="144" y="477"/>
      <point x="294" y="477" type="curve" smooth="yes"/>
      <point x="329" y="477"/>
      <point x="378" y="459"/>
      <point x="402" y="450" type="curve"/>
      <point x="397" y="109" type="line"/>
      <point x="372" y="91"/>
      <point x="301" y="44"/>
      <point x="236" y="44" type="curve" smooth="yes"/>
    </contour>
    <contour>
      <point x="262" y="681"/>
      <point x="240" y="712"/>
      <point x="198" y="712" type="curve" smooth="yes"/>
      <point x="146" y="712"/>
      <point x="114" y="661"/>
      <point x="98" y="617" type="curve"/>
      <point x="128" y="607" type="line"/>
      <point x="138" y="638"/>
      <point x="164" y="680"/>
      <point x="198" y="680" type="curve" smooth="yes"/>
      <point x="218" y="680"/>
      <point x="229" y="674"/>
      <point x="255" y="637" type="curve" smooth="yes"/>
      <point x="274" y="610"/>
      <point x="297" y="579"/>
      <point x="338" y="579" type="curve" smooth="yes"/>
      <point x="382" y="579"/>
      <point x="425" y="625"/>
      <point x="442" y="681" type="curve"/>
      <point x="411" y="691" type="line"/>
      <point x="400" y="657"/>
      <point x="376" y="610"/>
      <point x="338" y="610" type="curve" smooth="yes"/>
      <point x="317" y="610"/>
      <point x="306" y="617"/>
      <point x="280" y="656" type="curve"/>
    </contour>
  </outline>
</glyph>
<glyph name="icircumflex" format="1">
  <advance width="236"/>
  <unicode hex="00EE"/>
  <outline>
    <contour>
      <point x="22" y="575" type="line"/>
      <point x="139" y="667" type="line"/>
      <point x="239" y="577" type="line"/>
      <point x="262" y="603" type="line"/>
      <point x="142" y="718" type="line"/>
      <point x="1" y="603" type="line"/>
    </contour>
    <contour>
      <point x="105" y="493" type="line"/>
      <point x="105" y="2" type="line"/>
      <point x="145" y="9" type="line"/>
      <point x="145" y="498" type="line"/>
    </contour>
  </outline>
</glyph>
<glyph name="eth" format="1">
  <advance width="472"/>
  <unicode hex="00F0"/>
  <outline>
    <contour>
      <point x="291" y="619"/>
      <point x="346" y="646"/>
      <point x="377" y="659" type="curve"/>
      <point x="370" y="678" type="line"/>
      <point x="336" y="663"/>
      <point x="286" y="636"/>
      <point x="246" y="614" type="curve"/>
      <point x="186" y="672" type="line"/>
      <point x="166" y="647" type="line"/>
      <point x="176" y="637"/>
      <point x="195" y="620"/>
      <point x="216" y="599" type="curve"/>
      <point x="183" y="579"/>
      <point x="133" y="550"/>
      <point x="99" y="528" type="curve"/>
      <point x="110" y="509" type="line"/>
      <point x="132" y="524"/>
      <point x="183" y="556"/>
      <point x="232" y="583" type="curve"/>
      <point x="267" y="544"/>
      <point x="309" y="494"/>
      <point x="345" y="433" type="curve"/>
      <point x="171" y="427"/>
      <point x="52" y="326"/>
      <point x="52" y="174" type="curve" smooth="yes"/>
      <point x="52" y="71"/>
      <point x="123" y="0"/>
      <point x="214" y="0" type="curve" smooth="yes"/>
      <point x="348" y="0"/>
      <point x="430" y="128"/>
      <point x="430" y="255" type="curve" smooth="yes"/>
      <point x="430" y="383"/>
      <point x="342" y="511"/>
      <point x="260" y="599" type="curve"/>
    </contour>
    <contour>
      <point x="140" y="32"/>
      <point x="85" y="86"/>
      <point x="85" y="173" type="curve" smooth="yes"/>
      <point x="85" y="333"/>
      <point x="205" y="401"/>
      <point x="361" y="401" type="curve"/>
      <point x="384" y="353"/>
      <point x="397" y="304"/>
      <point x="397" y="258" type="curve" smooth="yes"/>
      <point x="397" y="149"/>
      <point x="330" y="32"/>
      <point x="214" y="32" type="curve" smooth="yes"/>
    </contour>
  </outline>
</glyph>
<glyph name="otilde" format="1">
  <advance width="525"/>
  <unicode hex="00F5"/>
  <outline>
    <contour>
      <point x="378" y="0"/>
      <point x="484" y="123"/>
      <point x="484" y="271" type="curve" smooth="yes"/>
      <point x="484" y="395"/>
      <point x="397" y="500"/>
      <point x="284" y="500" type="curve" smooth="yes"/>
      <point x="153" y="500"/>
      <point x="52" y="380"/>
      <point x="52" y="233" type="curve" smooth="yes"/>
      <point x="52" y="107"/>
      <point x="138" y="0"/>
      <point x="252" y="0" type="curve" smooth="yes"/>
    </contour>
    <contour>
      <point x="372" y="467"/>
      <point x="446" y="375"/>
      <point x="446" y="266" type="curve" smooth="yes"/>
      <point x="446" y="140"/>
      <point x="354" y="32"/>
      <point x="254" y="32" type="curve" smooth="yes"/>
      <point x="157" y="32"/>
      <point x="91" y="123"/>
      <point x="91" y="231" type="curve" smooth="yes"/>
      <point x="91" y="358"/>
      <point x="177" y="467"/>
      <point x="279" y="467" type="curve" smooth="yes"/>
    </contour>
    <contour>
      <point x="284" y="681"/>
      <point x="262" y="712"/>
      <point x="220" y="712" type="curve" smooth="yes"/>
      <point x="168" y="712"/>
      <point x="136" y="661"/>
      <point x="120" y="617" type="curve"/>
      <point x="150" y="607" type="line"/>
      <point x="160" y="638"/>
      <point x="186" y="680"/>
      <point x="220" y="680" type="curve" smooth="yes"/>
      <point x="240" y="680"/>
      <point x="251" y="674"/>
      <point x="277" y="637" type="curve" smooth="yes"/>
      <point x="296" y="610"/>
      <point x="319" y="579"/>
      <point x="360" y="579" type="curve" smooth="yes"/>
      <point x="404" y="579"/>
      <point x="447" y="625"/>
      <point x="464" y="681" type="curve"/>
      <point x="433" y="691" type="line"/>
      <point x="422" y="657"/>
      <point x="398" y="610"/>
      <point x="360" y="610" type="curve" smooth="yes"/>
      <point x="339" y="610"/>
      <point x="328" y="617"/>
      <point x="302" y="656" type="curve"/>
    </contour>
  </outline>
</glyph>
<glyph name="divide" format="1">
  <advance width="397"/>
  <unicode hex="00F7"/>
  <outline>
    <contour>
      <point x="230" y="382" type="line"/>
      <point x="193" y="376" type="line"/>
      <point x="188" y="331" type="line"/>
      <point x="227" y="337" type="line"/>
    </contour>
    <contour>
      <point x="215" y="191" type="line"/>
      <point x="178" y="184" type="line"/>
      <point x="172" y="139" type="line"/>
      <point x="212" y="145" type="line"/>
    </contour>
    <contour>
      <point x="60" y="244" type="line"/>
      <point x="339" y="244" type="line"/>
      <point x="346" y="277" type="line"/>
      <point x="67" y="277" type="line"/>
    </contour>
  </outline>
</glyph>
<glyph name="ucircumflex" format="1">
  <advance width="506"/>
  <unicode hex="00FB"/>
  <outline>
    <contour>
      <point x="165" y="575" type="line"/>
      <point x="282" y="667" type="line"/>
      <point x="382" y="577" type="line"/>
      <point x="405" y="603" type="line"/>
      <point x="285" y="718" type="line"/>
      <point x="143" y="603" type="line"/>
    </contour>
    <contour>
      <point x="104" y="368"/>
      <point x="115" y="465"/>
      <point x="120" y="502" type="curve"/>
      <point x="84" y="495" type="line"/>
      <point x="73" y="425"/>
      <point x="69" y="335"/>
      <point x="69" y="291" type="curve" smooth="yes"/>
      <point x="69" y="148"/>
      <point x="68" y="-6"/>
      <point x="217" y="-6" type="curve" smooth="yes"/>
      <point x="292" y="-6"/>
      <point x="367" y="47"/>
      <point x="405" y="90" type="curve"/>
      <point x="405" y="2" type="line"/>
      <point x="449" y="9" type="line"/>
      <point x="449" y="502" type="line"/>
      <point x="410" y="495" type="line"/>
      <point x="409" y="175" type="line" smooth="yes"/>
      <point x="409" y="149"/>
      <point x="402" y="132"/>
      <point x="394" y="123" type="curve" smooth="yes"/>
      <point x="371" y="97"/>
      <point x="294" y="26"/>
      <point x="218" y="26" type="curve" smooth="yes"/>
      <point x="100" y="26"/>
      <point x="105" y="159"/>
      <point x="104" y="291" type="curve"/>
    </contour>
  </outline>
</glyph>
<glyph name="yacute" format="1">
  <advance width="490"/>
  <unicode hex="00FD"/>
  <outline>
    <contour>
      <point x="173" y="617" type="line"/>
      <point x="199" y="593" type="line"/>
      <point x="351" y="698" type="line"/>
      <point x="313" y="730" type="line"/>
    </contour>
    <contour>
      <point x="442" y="496" type="line"/>
      <point x="256" y="97" type="line"/>
      <point x="59" y="495" type="line"/>
      <point x="24" y="478" type="line"/>
      <point x="237" y="52" type="line"/>
      <point x="125" y="-186" type="line"/>
      <point x="160" y="-203" type="line"/>
      <point x="476" y="479" type="line"/>
    </contour>
  </outline>
</glyph>
<glyph name="ydieresis" format="1">
  <advance width="490"/>
  <unicode hex="00FF"/>
  <outline>
    <contour>
      <point x="204" y="669" type="line"/>
      <point x="149" y="660" type="line"/>
      <point x="143" y="596" type="line"/>
      <point x="197" y="604" type="line"/>
    </contour>
    <contour>
      <point x="371" y="669" type="line"/>
      <point x="316" y="660" type="line"/>
      <point x="310" y="596" type="line"/>
      <point x="364" y="604" type="line"/>
    </contour>
    <contour>
      <point x="442" y="497" type="line"/>
      <point x="256" y="98" type="line"/>
      <point x="59" y="496" type="line"/>
      <point x="24" y="479" type="line"/>
      <point x="237" y="53" type="line"/>
      <point x="125" y="-185" type="line"/>
      <point x="160" y="-202" type="line"/>
      <point x="476" y="480" type="line"/>
    </contour>
  </outline>
</glyph>
<glyph name="Abreve" format="1">
  <advance width="613"/>
  <unicode hex="0102"/>
  <outline>
    <contour>
      <point x="355" y="679" type="line"/>
      <point x="296" y="668" type="line"/>
      <point x="137" y="241" type="line"/>
      <point x="64" y="227" type="line"/>
      <point x="72" y="191" type="line"/>
      <point x="120" y="201" type="line"/>
      <point x="54" y="22" type="line"/>
      <point x="87" y="4" type="line"/>
      <point x="164" y="211" type="line"/>
      <point x="451" y="271" type="line"/>
      <point x="538" y="7" type="line"/>
      <point x="568" y="29" type="line"/>
    </contour>
    <contour>
      <point x="180" y="251" type="line"/>
      <point x="327" y="646" type="line"/>
      <point x="439" y="304" type="line"/>
    </contour>
    <contour>
      <point x="294" y="788"/>
      <point x="244" y="800"/>
      <point x="206" y="858" type="curve"/>
      <point x="190" y="841" type="line"/>
      <point x="215" y="793"/>
      <point x="269" y="761"/>
      <point x="335" y="761" type="curve" smooth="yes"/>
      <point x="394" y="761"/>
      <point x="451" y="796"/>
      <point x="472" y="845" type="curve"/>
      <point x="454" y="862" type="line"/>
      <point x="434" y="813"/>
      <point x="386" y="788"/>
      <point x="333" y="788" type="curve" smooth="yes"/>
    </contour>
  </outline>
</glyph>
<glyph name="aogonek" format="1">
  <advance width="500"/>
  <unicode hex="0105"/>
  <outline>
    <contour>
      <point x="437" y="10" type="line"/>
      <point x="437" y="475" type="line"/>
      <point x="392" y="497"/>
      <point x="342" y="513"/>
      <point x="289" y="513" type="curve" smooth="yes"/>
      <point x="116" y="513"/>
      <point x="52" y="325"/>
      <point x="52" y="222" type="curve" smooth="yes"/>
      <point x="52" y="95"/>
      <point x="131" y="7"/>
      <point x="238" y="7" type="curve" smooth="yes"/>
      <point x="293" y="7"/>
      <point x="357" y="39"/>
      <point x="399" y="65" type="curve"/>
      <point x="399" y="20" type="line"/>
      <point x="356" y="-4"/>
      <point x="305" y="-53"/>
      <point x="305" y="-112" type="curve" smooth="yes"/>
      <point x="305" y="-168"/>
      <point x="347" y="-209"/>
      <point x="404" y="-209" type="curve" smooth="yes"/>
      <point x="441" y="-209"/>
      <point x="478" y="-191"/>
      <point x="496" y="-172" type="curve"/>
      <point x="479" y="-149" type="line"/>
      <point x="455" y="-166"/>
      <point x="439" y="-177"/>
      <point x="404" y="-177" type="curve" smooth="yes"/>
      <point x="366" y="-177"/>
      <point x="336" y="-152"/>
      <point x="336" y="-113" type="curve" smooth="yes"/>
      <point x="336" y="-63"/>
      <point x="375" y="-35"/>
      <point x="402" y="-15" type="curve" smooth="yes"/>
    </contour>
    <contour>
      <point x="129" y="46"/>
      <point x="91" y="144"/>
      <point x="91" y="224" type="curve" smooth="yes"/>
      <point x="91" y="316"/>
      <point x="144" y="477"/>
      <point x="294" y="477" type="curve" smooth="yes"/>
      <point x="329" y="477"/>
      <point x="378" y="459"/>
      <point x="402" y="450" type="curve"/>
      <point x="397" y="109" type="line"/>
      <point x="372" y="91"/>
      <point x="301" y="44"/>
      <point x="236" y="44" type="curve" smooth="yes"/>
    </contour>
  </outline>
</glyph>
<glyph name="cacute" format="1">
  <advance width="497"/>
  <unicode hex="0107"/>
  <outline>
    <contour>
      <point x="201" y="617" type="line"/>
      <point x="226" y="593" type="line"/>
      <point x="378" y="698" type="line"/>
      <point x="341" y="730" type="line"/>
    </contour>
    <contour>
      <point x="225" y="31"/>
      <point x="88" y="61"/>
      <point x="88" y="217" type="curve" smooth="yes"/>
      <point x="88" y="316"/>
      <point x="168" y="469"/>
      <point x="277" y="469" type="curve" smooth="yes"/>
      <point x="325" y="469"/>
      <point x="367" y="450"/>
      <point x="394" y="413" type="curve"/>
      <point x="420" y="438" type="line"/>
      <point x="386" y="478"/>
      <point x="333" y="502"/>
      <point x="275" y="502" type="curve" smooth="yes"/>
      <point x="140" y="502"/>
      <point x="53" y="328"/>
      <point x="53" y="215" type="curve" smooth="yes"/>
      <point x="53" y="91"/>
      <point x="162" y="-6"/>
      <point x="279" y="0" type="curve" smooth="yes"/>
      <point x="353" y="3"/>
      <point x="415" y="35"/>
      <point x="452" y="90" type="curve"/>
      <point x="427" y="115" type="line"/>
      <point x="397" y="67"/>
      <point x="342" y="36"/>
      <point x="278" y="33" type="curve" smooth="yes"/>
    </contour>
  </outline>
</glyph>
<glyph name="ccaron" format="1">
  <advance width="497"/>
  <unicode hex="010D"/>
  <outline>
    <contour>
      <point x="401" y="718" type="line"/>
      <point x="285" y="625" type="line"/>
      <point x="186" y="717" type="line"/>
      <point x="162" y="688" type="line"/>
      <point x="281" y="575" type="line"/>
      <point x="423" y="687" type="line"/>
    </contour>
    <contour>
      <point x="225" y="31"/>
      <point x="88" y="61"/>
      <point x="88" y="217" type="curve" smooth="yes"/>
      <point x="88" y="316"/>
      <point x="168" y="469"/>
      <point x="277" y="469" type="curve" smooth="yes"/>
      <point x="325" y="469"/>
      <point x="367" y="450"/>
      <point x="394" y="413" type="curve"/>
      <point x="420" y="438" type="line"/>
      <point x="386" y="478"/>
      <point x="333" y="502"/>
      <point x="275" y="502" type="curve" smooth="yes"/>
      <point x="140" y="502"/>
      <point x="53" y="328"/>
      <point x="53" y="215" type="curve" smooth="yes"/>
      <point x="53" y="91"/>
      <point x="162" y="-6"/>
      <point x="279" y="0" type="curve" smooth="yes"/>
      <point x="353" y="3"/>
      <point x="415" y="35"/>
      <point x="452" y="90" type="curve"/>
      <point x="427" y="115" type="line"/>
      <point x="397" y="67"/>
      <point x="342" y="36"/>
      <point x="278" y="33" type="curve" smooth="yes"/>
    </contour>
  </outline>
</glyph>
<glyph name="dcaron" format="1">
  <advance width="599"/>
  <unicode hex="010F"/>
  <outline>
    <contour>
      <point x="576" y="696" type="line"/>
      <point x="534" y="651" type="line"/>
      <point x="571" y="629" type="line"/>
      <point x="515" y="529" type="line"/>
      <point x="547" y="510" type="line"/>
      <point x="634" y="666" type="line"/>
    </contour>
    <contour>
      <point x="421" y="696" type="line"/>
      <point x="416" y="457" type="line"/>
      <point x="377" y="475"/>
      <point x="327" y="495"/>
      <point x="271" y="495" type="curve" smooth="yes"/>
      <point x="80" y="495"/>
      <point x="53" y="315"/>
      <point x="53" y="225" type="curve" smooth="yes"/>
      <point x="53" y="117"/>
      <point x="105" y="6"/>
      <point x="220" y="6" type="curve" smooth="yes"/>
      <point x="298" y="6"/>
      <point x="365" y="57"/>
      <point x="407" y="97" type="curve"/>
      <point x="405" y="2" type="line"/>
      <point x="443" y="9" type="line"/>
      <point x="459" y="703" type="line"/>
    </contour>
    <contour>
      <point x="409" y="158" type="line" smooth="yes"/>
      <point x="408" y="123"/>
      <point x="331" y="36"/>
      <point x="220" y="36" type="curve" smooth="yes"/>
      <point x="113" y="36"/>
      <point x="90" y="155"/>
      <point x="90" y="228" type="curve" smooth="yes"/>
      <point x="90" y="321"/>
      <point x="117" y="460"/>
      <point x="265" y="460" type="curve" smooth="yes"/>
      <point x="328" y="460"/>
      <point x="394" y="428"/>
      <point x="415" y="417" type="curve"/>
    </contour>
  </outline>
</glyph>
<glyph name="Eogonek" format="1">
  <advance width="601"/>
  <unicode hex="0118"/>
  <outline>
    <contour>
      <point x="539" y="-149" type="line"/>
      <point x="515" y="-166"/>
      <point x="499" y="-177"/>
      <point x="464" y="-177" type="curve" smooth="yes"/>
      <point x="426" y="-177"/>
      <point x="396" y="-152"/>
      <point x="396" y="-113" type="curve" smooth="yes"/>
      <point x="396" y="-63"/>
      <point x="435" y="-35"/>
      <point x="462" y="-15" type="curve" smooth="yes"/>
      <point x="483" y="0" type="line"/>
      <point x="530" y="0" type="line"/>
      <point x="545" y="37" type="line"/>
      <point x="105" y="37" type="line"/>
      <point x="105" y="336" type="line"/>
      <point x="486" y="336" type="line"/>
      <point x="497" y="373" type="line"/>
      <point x="105" y="373" type="line"/>
      <point x="105" y="644" type="line"/>
      <point x="533" y="644" type="line"/>
      <point x="541" y="681" type="line"/>
      <point x="68" y="681" type="line"/>
      <point x="68" y="0" type="line"/>
      <point x="429" y="0" type="line"/>
      <point x="395" y="-27"/>
      <point x="365" y="-66"/>
      <point x="365" y="-112" type="curve" smooth="yes"/>
      <point x="365" y="-168"/>
      <point x="407" y="-209"/>
      <point x="464" y="-209" type="curve" smooth="yes"/>
      <point x="501" y="-209"/>
      <point x="538" y="-191"/>
      <point x="556" y="-172" type="curve"/>
    </contour>
  </outline>
</glyph>
<glyph name="eogonek" format="1">
  <advance width="517"/>
  <unicode hex="0119"/>
  <outline>
    <contour>
      <point x="391" y="-149" type="line"/>
      <point x="367" y="-166"/>
      <point x="351" y="-177"/>
      <point x="316" y="-177" type="curve" smooth="yes"/>
      <point x="278" y="-177"/>
      <point x="248" y="-152"/>
      <point x="248" y="-113" type="curve" smooth="yes"/>
      <point x="248" y="-40"/>
      <point x="328" y="-7"/>
      <point x="380" y="18" type="curve" smooth="yes"/>
      <point x="409" y="32"/>
      <point x="431" y="42"/>
      <point x="458" y="68" type="curve"/>
      <point x="435" y="91" type="line"/>
      <point x="396" y="54"/>
      <point x="346" y="32"/>
      <point x="294" y="32" type="curve" smooth="yes"/>
      <point x="213" y="32"/>
      <point x="142" y="84"/>
      <point x="104" y="160" type="curve"/>
      <point x="473" y="365" type="line"/>
      <point x="448" y="441"/>
      <point x="378" y="502"/>
      <point x="294" y="502" type="curve" smooth="yes"/>
      <point x="159" y="502"/>
      <point x="52" y="388"/>
      <point x="52" y="251" type="curve" smooth="yes"/>
      <point x="52" y="116"/>
      <point x="153" y="6"/>
      <point x="282" y="0" type="curve"/>
      <point x="248" y="-27"/>
      <point x="217" y="-66"/>
      <point x="217" y="-112" type="curve" smooth="yes"/>
      <point x="217" y="-168"/>
      <point x="259" y="-209"/>
      <point x="316" y="-209" type="curve" smooth="yes"/>
      <point x="353" y="-209"/>
      <point x="390" y="-191"/>
      <point x="408" y="-172" type="curve"/>
    </contour>
    <contour>
      <point x="347" y="470"/>
      <point x="399" y="436"/>
      <point x="431" y="379" type="curve"/>
      <point x="93" y="190" type="line"/>
      <point x="87" y="214"/>
      <point x="84" y="233"/>
      <point x="84" y="251" type="curve" smooth="yes"/>
      <point x="84" y="367"/>
      <point x="174" y="470"/>
      <point x="294" y="470" type="curve" smooth="yes"/>
    </contour>
  </outline>
</glyph>
<glyph name="Ecaron" format="1">
  <advance width="601"/>
  <unicode hex="011A"/>
  <outline>
    <contour>
      <point x="415" y="884" type="line"/>
      <point x="298" y="792" type="line"/>
      <point x="201" y="883" type="line"/>
      <point x="177" y="855" type="line"/>
      <point x="295" y="743" type="line"/>
      <point x="436" y="854" type="line"/>
    </contour>
    <contour>
      <point x="105" y="37" type="line"/>
      <point x="105" y="336" type="line"/>
      <point x="486" y="336" type="line"/>
      <point x="497" y="373" type="line"/>
      <point x="105" y="373" type="line"/>
      <point x="105" y="644" type="line"/>
      <point x="533" y="644" type="line"/>
      <point x="541" y="681" type="line"/>
      <point x="68" y="681" type="line"/>
      <point x="68" y="0" type="line"/>
      <point x="530" y="0" type="line"/>
      <point x="545" y="37" type="line"/>
    </contour>
  </outline>
</glyph>
<glyph name="lacute" format="1">
  <advance width="216"/>
  <unicode hex="013A"/>
  <outline>
    <contour>
      <point x="50" y="793" type="line"/>
      <point x="75" y="769" type="line"/>
      <point x="227" y="874" type="line"/>
      <point x="189" y="906" type="line"/>
    </contour>
    <contour>
      <point x="91" y="689" type="line"/>
      <point x="91" y="2" type="line"/>
      <point x="128" y="9" type="line"/>
      <point x="128" y="698" type="line"/>
    </contour>
  </outline>
</glyph>
<glyph name="lcaron" format="1">
  <advance width="280"/>
  <unicode hex="013E"/>
  <outline>
    <contour>
      <point x="89" y="689" type="line"/>
      <point x="89" y="2" type="line"/>
      <point x="127" y="9" type="line"/>
      <point x="127" y="698" type="line"/>
    </contour>
    <contour>
      <point x="247" y="699" type="line"/>
      <point x="204" y="654" type="line"/>
      <point x="241" y="632" type="line"/>
      <point x="185" y="532" type="line"/>
      <point x="218" y="513" type="line"/>
      <point x="304" y="669" type="line"/>
    </contour>
  </outline>
</glyph>
<glyph name="Lslash" format="1">
  <advance width="539"/>
  <unicode hex="0141"/>
  <outline>
    <contour>
      <point x="524" y="30" type="line"/>
      <point x="520" y="66" type="line"/>
      <point x="169" y="40" type="line"/>
      <point x="169" y="335" type="line"/>
      <point x="253" y="388" type="line"/>
      <point x="232" y="420" type="line"/>
      <point x="169" y="380" type="line"/>
      <point x="169" y="676" type="line"/>
      <point x="132" y="669" type="line"/>
      <point x="132" y="357" type="line"/>
      <point x="47" y="304" type="line"/>
      <point x="70" y="272" type="line"/>
      <point x="132" y="312" type="line"/>
      <point x="132" y="1" type="line"/>
    </contour>
  </outline>
</glyph>
<glyph name="Nacute" format="1">
  <advance width="605"/>
  <unicode hex="0143"/>
  <outline>
    <contour>
      <point x="220" y="784" type="line"/>
      <point x="246" y="760" type="line"/>
      <point x="396" y="864" type="line"/>
      <point x="358" y="896" type="line"/>
    </contour>
    <contour>
      <point x="513" y="672" type="line"/>
      <point x="513" y="45" type="line"/>
      <point x="114" y="680" type="line"/>
      <point x="68" y="666" type="line"/>
      <point x="69" y="3" type="line"/>
      <point x="103" y="11" type="line"/>
      <point x="103" y="631" type="line"/>
      <point x="495" y="1" type="line"/>
      <point x="547" y="12" type="line"/>
      <point x="547" y="679" type="line"/>
    </contour>
  </outline>
</glyph>
<glyph name="ohungarumlaut" format="1">
  <advance width="545"/>
  <unicode hex="0151"/>
  <outline>
    <contour>
      <point x="154" y="617" type="line"/>
      <point x="179" y="593" type="line"/>
      <point x="331" y="698" type="line"/>
      <point x="293" y="730" type="line"/>
    </contour>
    <contour>
      <point x="321" y="617" type="line"/>
      <point x="347" y="593" type="line"/>
      <point x="499" y="698" type="line"/>
      <point x="460" y="730" type="line"/>
    </contour>
    <contour>
      <point x="378" y="0"/>
      <point x="484" y="123"/>
      <point x="484" y="271" type="curve" smooth="yes"/>
      <point x="484" y="395"/>
      <point x="397" y="500"/>
      <point x="284" y="500" type="curve" smooth="yes"/>
      <point x="153" y="500"/>
      <point x="52" y="380"/>
      <point x="52" y="233" type="curve" smooth="yes"/>
      <point x="52" y="107"/>
      <point x="138" y="0"/>
      <point x="252" y="0" type="curve" smooth="yes"/>
    </contour>
    <contour>
      <point x="372" y="467"/>
      <point x="446" y="375"/>
      <point x="446" y="266" type="curve" smooth="yes"/>
      <point x="446" y="140"/>
      <point x="354" y="32"/>
      <point x="254" y="32" type="curve" smooth="yes"/>
      <point x="157" y="32"/>
      <point x="91" y="123"/>
      <point x="91" y="231" type="curve" smooth="yes"/>
      <point x="91" y="358"/>
      <point x="177" y="467"/>
      <point x="279" y="467" type="curve" smooth="yes"/>
    </contour>
  </outline>
</glyph>
<glyph name="OE" format="1">
  <advance width="1083"/>
  <unicode hex="0152"/>
  <outline>
    <contour>
      <point x="561" y="0" type="line"/>
      <point x="1023" y="0" type="line"/>
      <point x="1038" y="37" type="line"/>
      <point x="598" y="37" type="line"/>
      <point x="598" y="336" type="line"/>
      <point x="979" y="336" type="line"/>
      <point x="990" y="373" type="line"/>
      <point x="598" y="373" type="line"/>
      <point x="598" y="644" type="line"/>
      <point x="1026" y="644" type="line"/>
      <point x="1033" y="681" type="line"/>
      <point x="561" y="681" type="line"/>
      <point x="561" y="529" type="line"/>
      <point x="517" y="635"/>
      <point x="422" y="684"/>
      <point x="348" y="684" type="curve" smooth="yes"/>
      <point x="187" y="684"/>
      <point x="59" y="515"/>
      <point x="59" y="314" type="curve" smooth="yes"/>
      <point x="59" y="144"/>
      <point x="162" y="0"/>
      <point x="305" y="0" type="curve" smooth="yes"/>
      <point x="414" y="0"/>
      <point x="506" y="77"/>
      <point x="561" y="202" type="curve"/>
    </contour>
    <contour>
      <point x="547" y="161"/>
      <point x="434" y="33"/>
      <point x="305" y="33" type="curve" smooth="yes"/>
      <point x="181" y="33"/>
      <point x="93" y="161"/>
      <point x="93" y="314" type="curve" smooth="yes"/>
      <point x="93" y="502"/>
      <point x="209" y="651"/>
      <point x="341" y="651" type="curve" smooth="yes"/>
      <point x="470" y="651"/>
      <point x="561" y="509"/>
      <point x="561" y="365" type="curve"/>
    </contour>
  </outline>
</glyph>
<glyph name="Racute" format="1">
  <advance width="584"/>
  <unicode hex="0154"/>
  <outline>
    <contour>
      <point x="170" y="784" type="line"/>
      <point x="194" y="760" type="line"/>
      <point x="346" y="864" type="line"/>
      <point x="308" y="896" type="line"/>
    </contour>
    <contour>
      <point x="105" y="649" type="line"/>
      <point x="158" y="649" type="line" smooth="yes"/>
      <point x="412" y="649"/>
      <point x="482" y="571"/>
      <point x="482" y="476" type="curve" smooth="yes"/>
      <point x="482" y="372"/>
      <point x="319" y="291"/>
      <point x="105" y="283" type="curve"/>
    </contour>
    <contour>
      <point x="104" y="242" type="line"/>
      <point x="145" y="250"/>
      <point x="196" y="257"/>
      <point x="221" y="257" type="curve" smooth="yes"/>
      <point x="244" y="257"/>
      <point x="274" y="253"/>
      <point x="291" y="244" type="curve" smooth="yes"/>
      <point x="341" y="218"/>
      <point x="430" y="156"/>
      <point x="510" y="6" type="curve"/>
      <point x="537" y="31" type="line"/>
      <point x="464" y="162"/>
      <point x="376" y="238"/>
      <point x="310" y="278" type="curve"/>
      <point x="438" y="318"/>
      <point x="518" y="398"/>
      <point x="518" y="480" type="curve" smooth="yes"/>
      <point x="518" y="658"/>
      <point x="312" y="687"/>
      <point x="170" y="687" type="curve" smooth="yes"/>
      <point x="136" y="686"/>
      <point x="90" y="686"/>
      <point x="68" y="683" type="curve"/>
      <point x="68" y="2" type="line"/>
      <point x="104" y="9" type="line"/>
    </contour>
  </outline>
</glyph>
<glyph name="racute" format="1">
  <advance width="391"/>
  <unicode hex="0155"/>
  <outline>
    <contour>
      <point x="146" y="617" type="line"/>
      <point x="171" y="593" type="line"/>
      <point x="323" y="698" type="line"/>
      <point x="285" y="730" type="line"/>
    </contour>
    <contour>
      <point x="106" y="500" type="line"/>
      <point x="69" y="493" type="line"/>
      <point x="69" y="2" type="line"/>
      <point x="106" y="9" type="line"/>
      <point x="106" y="252" type="line" smooth="yes"/>
      <point x="106" y="357"/>
      <point x="210" y="466"/>
      <point x="288" y="466" type="curve" smooth="yes"/>
      <point x="329" y="466"/>
      <point x="334" y="447"/>
      <point x="334" y="419" type="curve" smooth="yes"/>
      <point x="334" y="397" type="line"/>
      <point x="371" y="404" type="line"/>
      <point x="371" y="438" type="line" smooth="yes"/>
      <point x="371" y="474"/>
      <point x="338" y="502"/>
      <point x="296" y="502" type="curve" smooth="yes"/>
      <point x="211" y="502"/>
      <point x="135" y="421"/>
      <point x="106" y="366" type="curve"/>
    </contour>
  </outline>
</glyph>
<glyph name="Scedilla" format="1">
  <advance width="589"/>
  <unicode hex="015E"/>
  <outline>
    <contour>
      <point x="142" y="584"/>
      <point x="175" y="646"/>
      <point x="329" y="646" type="curve" smooth="yes"/>
      <point x="393" y="646"/>
      <point x="498" y="625"/>
      <point x="498" y="532" type="curve" smooth="yes"/>
      <point x="498" y="527" type="line"/>
      <point x="531" y="536" type="line"/>
      <point x="531" y="545" type="line" smooth="yes"/>
      <point x="531" y="650"/>
      <point x="418" y="681"/>
      <point x="329" y="681" type="curve" smooth="yes"/>
      <point x="229" y="681"/>
      <point x="100" y="657"/>
      <point x="100" y="519" type="curve" smooth="yes"/>
      <point x="100" y="415"/>
      <point x="212" y="366"/>
      <point x="309" y="340" type="curve" smooth="yes"/>
      <point x="479" y="294"/>
      <point x="495" y="218"/>
      <point x="495" y="183" type="curve" smooth="yes"/>
      <point x="495" y="82"/>
      <point x="404" y="33"/>
      <point x="302" y="33" type="curve" smooth="yes"/>
      <point x="226" y="33"/>
      <point x="142" y="67"/>
      <point x="109" y="145" type="curve"/>
      <point x="67" y="138" type="line"/>
      <point x="96" y="65"/>
      <point x="171" y="14"/>
      <point x="263" y="2" type="curve"/>
      <point x="245" y="-50" type="line"/>
      <point x="266" y="-70" type="line"/>
      <point x="275" y="-64"/>
      <point x="291" y="-62"/>
      <point x="297" y="-62" type="curve" smooth="yes"/>
      <point x="331" y="-62"/>
      <point x="357" y="-89"/>
      <point x="357" y="-123" type="curve" smooth="yes"/>
      <point x="357" y="-157"/>
      <point x="331" y="-184"/>
      <point x="297" y="-184" type="curve" smooth="yes"/>
      <point x="283" y="-184"/>
      <point x="264" y="-178"/>
      <point x="252" y="-166" type="curve"/>
      <point x="235" y="-182" type="line"/>
      <point x="251" y="-198"/>
      <point x="273" y="-207"/>
      <point x="297" y="-207" type="curve" smooth="yes"/>
      <point x="344" y="-207"/>
      <point x="381" y="-169"/>
      <point x="381" y="-122" type="curve" smooth="yes"/>
      <point x="381" y="-71"/>
      <point x="342" y="-39"/>
      <point x="289" y="-39" type="curve" smooth="yes"/>
      <point x="275" y="-39" type="line"/>
      <point x="276" y="0" type="line"/>
      <point x="286" y="0"/>
      <point x="296" y="-1"/>
      <point x="307" y="-1" type="curve" smooth="yes"/>
      <point x="407" y="-1"/>
      <point x="534" y="57"/>
      <point x="534" y="183" type="curve" smooth="yes"/>
      <point x="534" y="275"/>
      <point x="458" y="337"/>
      <point x="316" y="378" type="curve" smooth="yes"/>
      <point x="206" y="409"/>
      <point x="142" y="449"/>
      <point x="142" y="520" type="curve" smooth="yes"/>
    </contour>
  </outline>
</glyph>
<glyph name="uni0162" format="1">
  <advance width="512"/>
  <unicode hex="0162"/>
  <outline>
    <contour>
      <point x="233" y="2" type="line"/>
      <point x="271" y="9" type="line"/>
      <point x="271" y="644" type="line"/>
      <point x="509" y="644" type="line"/>
      <point x="509" y="681" type="line"/>
      <point x="11" y="681" type="line"/>
      <point x="11" y="644" type="line"/>
      <point x="233" y="644" type="line"/>
    </contour>
    <contour>
      <point x="259" y="-43" type="line"/>
      <point x="217" y="-88" type="line"/>
      <point x="254" y="-109" type="line"/>
      <point x="198" y="-208" type="line"/>
      <point x="230" y="-227" type="line"/>
      <point x="316" y="-73" type="line"/>
    </contour>
  </outline>
</glyph>
<glyph name="Tcaron" format="1">
  <advance width="512"/>
  <unicode hex="0164"/>
  <outline>
    <contour>
      <point x="373" y="884" type="line"/>
      <point x="258" y="792" type="line"/>
      <point x="160" y="883" type="line"/>
      <point x="136" y="855" type="line"/>
      <point x="255" y="743" type="line"/>
      <point x="395" y="854" type="line"/>
    </contour>
    <contour>
      <point x="233" y="2" type="line"/>
      <point x="271" y="9" type="line"/>
      <point x="271" y="644" type="line"/>
      <point x="509" y="644" type="line"/>
      <point x="509" y="681" type="line"/>
      <point x="11" y="681" type="line"/>
      <point x="11" y="644" type="line"/>
      <point x="233" y="644" type="line"/>
    </contour>
  </outline>
</glyph>
<glyph name="tcaron" format="1">
  <advance width="419"/>
  <unicode hex="0165"/>
  <outline>
    <contour>
      <point x="345" y="744" type="line"/>
      <point x="302" y="699" type="line"/>
      <point x="340" y="677" type="line"/>
      <point x="283" y="577" type="line"/>
      <point x="316" y="558" type="line"/>
      <point x="402" y="713" type="line"/>
    </contour>
    <contour>
      <point x="348" y="502" type="line"/>
      <point x="204" y="502" type="line"/>
      <point x="204" y="676" type="line"/>
      <point x="166" y="669" type="line"/>
      <point x="166" y="502" type="line"/>
      <point x="22" y="502" type="line"/>
      <point x="22" y="465" type="line"/>
      <point x="166" y="465" type="line"/>
      <point x="166" y="2" type="line"/>
      <point x="204" y="9" type="line"/>
      <point x="204" y="465" type="line"/>
      <point x="348" y="465" type="line"/>
    </contour>
  </outline>
</glyph>
<glyph name="Zacute" format="1">
  <advance width="611"/>
  <unicode hex="0179"/>
  <outline>
    <contour>
      <point x="253" y="784" type="line"/>
      <point x="278" y="760" type="line"/>
      <point x="429" y="864" type="line"/>
      <point x="391" y="896" type="line"/>
    </contour>
    <contour>
      <point x="72" y="0" type="line"/>
      <point x="549" y="0" type="line"/>
      <point x="557" y="42" type="line"/>
      <point x="100" y="42" type="line"/>
      <point x="567" y="637" type="line"/>
      <point x="547" y="681" type="line"/>
      <point x="92" y="681" type="line"/>
      <point x="83" y="639" type="line"/>
      <point x="518" y="639" type="line"/>
      <point x="52" y="44" type="line"/>
    </contour>
  </outline>
</glyph>
<glyph name="breve" format="1">
  <advance width="490"/>
  <unicode hex="02D8"/>
  <outline>
    <contour>
      <point x="214" y="609"/>
      <point x="164" y="621"/>
      <point x="126" y="679" type="curve"/>
      <point x="110" y="662" type="line"/>
      <point x="135" y="614"/>
      <point x="189" y="582"/>
      <point x="255" y="582" type="curve" smooth="yes"/>
      <point x="314" y="582"/>
      <point x="371" y="617"/>
      <point x="392" y="666" type="curve"/>
      <point x="374" y="683" type="line"/>
      <point x="354" y="634"/>
      <point x="306" y="609"/>
      <point x="253" y="609" type="curve" smooth="yes"/>
    </contour>
  </outline>
</glyph>
<glyph name="ogonek" format="1">
  <advance width="490"/>
  <unicode hex="02DB"/>
  <outline>
    <contour>
      <point x="323" y="-149" type="line"/>
      <point x="299" y="-166"/>
      <point x="283" y="-177"/>
      <point x="248" y="-177" type="curve" smooth="yes"/>
      <point x="210" y="-177"/>
      <point x="180" y="-152"/>
      <point x="180" y="-113" type="curve" smooth="yes"/>
      <point x="180" y="-63"/>
      <point x="219" y="-35"/>
      <point x="246" y="-15" type="curve" smooth="yes"/>
      <point x="274" y="5" type="line"/>
      <point x="256" y="27" type="line"/>
      <point x="245" y="21" type="line" smooth="yes"/>
      <point x="202" y="-3"/>
      <point x="149" y="-52"/>
      <point x="149" y="-112" type="curve" smooth="yes"/>
      <point x="149" y="-168"/>
      <point x="191" y="-209"/>
      <point x="248" y="-209" type="curve" smooth="yes"/>
      <point x="285" y="-209"/>
      <point x="322" y="-191"/>
      <point x="340" y="-172" type="curve"/>
    </contour>
  </outline>
</glyph>
<glyph name="endash" format="1">
  <advance width="586"/>
  <unicode hex="2013"/>
  <outline>
    <contour>
      <point x="517" y="231" type="line"/>
      <point x="525" y="267" type="line"/>
      <point x="83" y="267" type="line"/>
      <point x="75" y="231" type="line"/>
    </contour>
  </outline>
</glyph>
<glyph name="quoteright" format="1">
  <advance width="172"/>
  <unicode hex="2019"/>
  <outline>
    <contour>
      <point x="90" y="756" type="line"/>
      <point x="47" y="711" type="line"/>
      <point x="85" y="689" type="line"/>
      <point x="29" y="589" type="line"/>
      <point x="61" y="571" type="line"/>
      <point x="147" y="726" type="line"/>
    </contour>
  </outline>
</glyph>
<glyph name="quotedblleft" format="1">
  <advance width="338"/>
  <unicode hex="201C"/>
  <outline>
    <contour>
      <point x="257" y="570" type="line"/>
      <point x="300" y="614" type="line"/>
      <point x="262" y="636" type="line"/>
      <point x="318" y="736" type="line"/>
      <point x="286" y="755" type="line"/>
      <point x="200" y="600" type="line"/>
    </contour>
    <contour>
      <point x="84" y="570" type="line"/>
      <point x="127" y="614" type="line"/>
      <point x="89" y="636" type="line"/>
      <point x="146" y="736" type="line"/>
      <point x="113" y="755" type="line"/>
      <point x="27" y="600" type="line"/>
    </contour>
  </outline>
</glyph>
<glyph name="bullet" format="1">
  <advance width="368"/>
  <unicode hex="2022"/>
  <outline>
    <contour>
      <point x="270" y="298"/>
      <point x="234" y="335"/>
      <point x="189" y="335" type="curve" smooth="yes"/>
      <point x="144" y="335"/>
      <point x="107" y="298"/>
      <point x="107" y="253" type="curve" smooth="yes"/>
      <point x="107" y="208"/>
      <point x="144" y="171"/>
      <point x="189" y="171" type="curve" smooth="yes"/>
      <point x="234" y="171"/>
      <point x="270" y="208"/>
      <point x="270" y="253" type="curve" smooth="yes"/>
    </contour>
  </outline>
</glyph>
<glyph name="guilsinglleft" format="1">
  <advance width="394"/>
  <unicode hex="2039"/>
  <outline>
    <contour>
      <point x="279" y="71" type="line"/>
      <point x="302" y="98" type="line"/>
      <point x="135" y="249" type="line"/>
      <point x="320" y="407" type="line"/>
      <point x="296" y="433" type="line"/>
      <point x="81" y="249" type="line"/>
    </contour>
  </outline>
</glyph>
